G75*
%MOIN*%
%OFA0B0*%
%FSLAX25Y25*%
%IPPOS*%
%LPD*%
%AMOC8*
5,1,8,0,0,1.08239X$1,22.5*
%
%ADD10R,0.06737X0.06737*%
%ADD11C,0.06737*%
%ADD12R,0.06800X0.06800*%
%ADD13OC8,0.06800*%
%ADD14C,0.08477*%
%ADD15R,0.08477X0.08477*%
%ADD16C,0.15800*%
%ADD17C,0.06800*%
%ADD18R,0.05950X0.05950*%
%ADD19OC8,0.06000*%
%ADD20OC8,0.08200*%
%ADD21C,0.12611*%
%ADD22C,0.06343*%
%ADD23C,0.16611*%
%ADD24C,0.04762*%
%ADD25C,0.04369*%
D10*
X0044753Y0227331D03*
X0044792Y0238512D03*
X0038493Y0280598D03*
D11*
X0048493Y0280598D03*
X0054792Y0238512D03*
X0064792Y0238512D03*
X0064753Y0227331D03*
X0054753Y0227331D03*
D12*
X0123532Y0269299D03*
X0146367Y0242606D03*
X0185816Y0269181D03*
X0219398Y0200008D03*
X0254831Y0200087D03*
D13*
X0244831Y0200087D03*
X0244831Y0210087D03*
X0244831Y0220087D03*
X0244831Y0230087D03*
X0244831Y0240087D03*
X0254831Y0240087D03*
X0254831Y0230087D03*
X0254831Y0220087D03*
X0254831Y0210087D03*
X0219398Y0210008D03*
X0209398Y0210008D03*
X0209398Y0220008D03*
X0209398Y0230008D03*
X0219398Y0230008D03*
X0219398Y0220008D03*
X0219398Y0240008D03*
X0209398Y0240008D03*
X0209398Y0200008D03*
D14*
X0248335Y0145362D03*
X0045658Y0035283D03*
D15*
X0045658Y0015598D03*
X0248335Y0165047D03*
D16*
X0096918Y0026937D03*
X0084713Y0045795D03*
X0072902Y0026937D03*
D17*
X0156209Y0242606D03*
X0166052Y0242606D03*
X0175894Y0242606D03*
X0185737Y0242606D03*
X0175973Y0269181D03*
X0166131Y0269181D03*
X0156288Y0269181D03*
X0146446Y0269181D03*
X0113690Y0269299D03*
X0103847Y0269299D03*
X0094005Y0269299D03*
X0084162Y0269299D03*
D18*
X0104235Y0213270D03*
X0120841Y0213270D03*
X0188841Y0213270D03*
X0188341Y0057770D03*
X0120841Y0057770D03*
X0103735Y0057770D03*
X0036235Y0057770D03*
X0036235Y0213270D03*
D19*
X0062272Y0250008D03*
X0069772Y0255008D03*
X0062272Y0260008D03*
D20*
X0024359Y0256110D03*
X0024359Y0246110D03*
X0014359Y0246110D03*
X0014359Y0256110D03*
X0014359Y0236110D03*
X0014359Y0226110D03*
X0014359Y0216110D03*
X0024359Y0216110D03*
X0024359Y0226110D03*
X0024359Y0236110D03*
X0024359Y0206110D03*
X0024359Y0196110D03*
X0024359Y0186110D03*
X0024359Y0176110D03*
X0014359Y0176110D03*
X0014359Y0186110D03*
X0014359Y0196110D03*
X0014359Y0206110D03*
X0014359Y0166110D03*
X0014359Y0156110D03*
X0014359Y0146110D03*
X0024359Y0146110D03*
X0024359Y0156110D03*
X0024359Y0166110D03*
X0024359Y0136110D03*
X0024359Y0126110D03*
X0024359Y0116110D03*
X0014359Y0116110D03*
X0014359Y0126110D03*
X0014359Y0136110D03*
X0014359Y0106110D03*
X0014359Y0096110D03*
X0014359Y0086110D03*
X0014359Y0076110D03*
X0024359Y0076110D03*
X0024359Y0086110D03*
X0024359Y0096110D03*
X0024359Y0106110D03*
X0024359Y0066110D03*
X0014359Y0066110D03*
D21*
X0019359Y0046937D03*
X0212272Y0046937D03*
X0212272Y0275283D03*
X0019359Y0275283D03*
D22*
X0215422Y0108748D03*
X0215422Y0098906D03*
X0215422Y0091031D03*
X0215422Y0081189D03*
D23*
X0226052Y0068984D03*
X0226052Y0120953D03*
D24*
X0022036Y0020756D03*
X0060383Y0057409D03*
X0087312Y0090165D03*
X0087706Y0095283D03*
X0087824Y0100441D03*
X0089713Y0105323D03*
X0092706Y0110362D03*
X0096013Y0115520D03*
X0099517Y0120441D03*
X0096564Y0088906D03*
X0111091Y0086898D03*
X0133178Y0095362D03*
X0145225Y0066465D03*
X0135304Y0018591D03*
X0065107Y0091504D03*
X0045304Y0107882D03*
X0033532Y0110362D03*
X0048335Y0130283D03*
X0040580Y0155756D03*
X0049320Y0165087D03*
X0049438Y0174969D03*
X0038414Y0182921D03*
X0049044Y0192646D03*
X0045107Y0196228D03*
X0046170Y0205323D03*
X0067942Y0211110D03*
X0071643Y0207567D03*
X0073965Y0220087D03*
X0082587Y0189181D03*
X0104398Y0201858D03*
X0109359Y0195992D03*
X0131879Y0183787D03*
X0107745Y0162213D03*
X0103572Y0221150D03*
X0106997Y0226307D03*
X0120776Y0240323D03*
X0133454Y0252055D03*
X0133296Y0257685D03*
X0133060Y0263433D03*
X0131013Y0270244D03*
X0164595Y0212252D03*
X0164202Y0178157D03*
X0190107Y0144417D03*
X0203847Y0149142D03*
X0248178Y0270441D03*
X0055245Y0274240D03*
X0044792Y0258827D03*
X0033375Y0265402D03*
X0036052Y0245205D03*
X0031170Y0227803D03*
X0010422Y0264850D03*
X0033178Y0090402D03*
X0246446Y0021622D03*
D25*
X0043769Y0268984D03*
M02*
