G75*
%MOIN*%
%OFA0B0*%
%FSLAX25Y25*%
%IPPOS*%
%LPD*%
%AMOC8*
5,1,8,0,0,1.08239X$1,22.5*
%
%ADD10R,0.05937X0.05937*%
%ADD11C,0.05937*%
%ADD12R,0.06000X0.06000*%
%ADD13OC8,0.06000*%
%ADD14C,0.07677*%
%ADD15R,0.07677X0.07677*%
%ADD16C,0.15000*%
%ADD17C,0.06000*%
%ADD18R,0.05150X0.05150*%
%ADD19OC8,0.05200*%
%ADD20OC8,0.07400*%
%ADD21C,0.05543*%
%ADD22C,0.15811*%
%ADD23C,0.01600*%
%ADD24C,0.03962*%
%ADD25C,0.06600*%
%ADD26C,0.05000*%
%ADD27C,0.01000*%
%ADD28C,0.03200*%
%ADD29C,0.03569*%
%ADD30C,0.02400*%
D10*
X0044753Y0227331D03*
X0044792Y0238512D03*
X0038493Y0280598D03*
D11*
X0048493Y0280598D03*
X0054792Y0238512D03*
X0064792Y0238512D03*
X0064753Y0227331D03*
X0054753Y0227331D03*
D12*
X0123532Y0269299D03*
X0146367Y0242606D03*
X0185816Y0269181D03*
X0219398Y0200008D03*
X0254831Y0200087D03*
D13*
X0244831Y0200087D03*
X0244831Y0210087D03*
X0244831Y0220087D03*
X0244831Y0230087D03*
X0244831Y0240087D03*
X0254831Y0240087D03*
X0254831Y0230087D03*
X0254831Y0220087D03*
X0254831Y0210087D03*
X0219398Y0210008D03*
X0209398Y0210008D03*
X0209398Y0220008D03*
X0209398Y0230008D03*
X0219398Y0230008D03*
X0219398Y0220008D03*
X0219398Y0240008D03*
X0209398Y0240008D03*
X0209398Y0200008D03*
D14*
X0248335Y0145362D03*
X0045658Y0035283D03*
D15*
X0045658Y0015598D03*
X0248335Y0165047D03*
D16*
X0096918Y0026937D03*
X0084713Y0045795D03*
X0072902Y0026937D03*
D17*
X0156209Y0242606D03*
X0166052Y0242606D03*
X0175894Y0242606D03*
X0185737Y0242606D03*
X0175973Y0269181D03*
X0166131Y0269181D03*
X0156288Y0269181D03*
X0146446Y0269181D03*
X0113690Y0269299D03*
X0103847Y0269299D03*
X0094005Y0269299D03*
X0084162Y0269299D03*
D18*
X0104235Y0213270D03*
X0120841Y0213270D03*
X0188841Y0213270D03*
X0188341Y0057770D03*
X0120841Y0057770D03*
X0103735Y0057770D03*
X0036235Y0057770D03*
X0036235Y0213270D03*
D19*
X0062272Y0250008D03*
X0069772Y0255008D03*
X0062272Y0260008D03*
D20*
X0024359Y0256110D03*
X0024359Y0246110D03*
X0014359Y0246110D03*
X0014359Y0256110D03*
X0014359Y0236110D03*
X0014359Y0226110D03*
X0014359Y0216110D03*
X0024359Y0216110D03*
X0024359Y0226110D03*
X0024359Y0236110D03*
X0024359Y0206110D03*
X0024359Y0196110D03*
X0024359Y0186110D03*
X0024359Y0176110D03*
X0014359Y0176110D03*
X0014359Y0186110D03*
X0014359Y0196110D03*
X0014359Y0206110D03*
X0014359Y0166110D03*
X0014359Y0156110D03*
X0014359Y0146110D03*
X0024359Y0146110D03*
X0024359Y0156110D03*
X0024359Y0166110D03*
X0024359Y0136110D03*
X0024359Y0126110D03*
X0024359Y0116110D03*
X0014359Y0116110D03*
X0014359Y0126110D03*
X0014359Y0136110D03*
X0014359Y0106110D03*
X0014359Y0096110D03*
X0014359Y0086110D03*
X0014359Y0076110D03*
X0024359Y0076110D03*
X0024359Y0086110D03*
X0024359Y0096110D03*
X0024359Y0106110D03*
X0024359Y0066110D03*
X0014359Y0066110D03*
D21*
X0215422Y0081189D03*
X0215422Y0091031D03*
X0215422Y0098906D03*
X0215422Y0108748D03*
D22*
X0226052Y0120953D03*
X0226052Y0068984D03*
D23*
X0007400Y0008679D02*
X0007400Y0280943D01*
X0010265Y0280943D01*
X0009383Y0279416D01*
X0008654Y0276693D01*
X0008654Y0273874D01*
X0009383Y0271151D01*
X0010793Y0268710D01*
X0012786Y0266717D01*
X0015227Y0265308D01*
X0017950Y0264578D01*
X0020768Y0264578D01*
X0023491Y0265308D01*
X0025932Y0266717D01*
X0027926Y0268710D01*
X0029335Y0271151D01*
X0030065Y0273874D01*
X0030065Y0276693D01*
X0029335Y0279416D01*
X0028453Y0280943D01*
X0033524Y0280943D01*
X0033524Y0276801D01*
X0034696Y0275630D01*
X0041023Y0275630D01*
X0040214Y0275295D01*
X0039426Y0274507D01*
X0034262Y0269343D01*
X0034167Y0269383D01*
X0032583Y0269383D01*
X0031120Y0268777D01*
X0030000Y0267657D01*
X0029394Y0266193D01*
X0029394Y0264610D01*
X0030000Y0263146D01*
X0031120Y0262027D01*
X0032583Y0261420D01*
X0034167Y0261420D01*
X0035630Y0262027D01*
X0036750Y0263146D01*
X0037291Y0264452D01*
X0040302Y0267464D01*
X0040560Y0266841D01*
X0041192Y0266209D01*
X0041192Y0260539D01*
X0040811Y0259619D01*
X0040811Y0258035D01*
X0041192Y0257115D01*
X0041192Y0243480D01*
X0040995Y0243480D01*
X0039824Y0242309D01*
X0039824Y0234715D01*
X0040995Y0233543D01*
X0048589Y0233543D01*
X0049761Y0234715D01*
X0049761Y0238389D01*
X0049824Y0238452D01*
X0049824Y0237523D01*
X0050580Y0235697D01*
X0051978Y0234300D01*
X0053804Y0233543D01*
X0055780Y0233543D01*
X0057607Y0234300D01*
X0059004Y0235697D01*
X0059761Y0237523D01*
X0059761Y0239500D01*
X0059004Y0241326D01*
X0057607Y0242724D01*
X0055780Y0243480D01*
X0054852Y0243480D01*
X0057779Y0246408D01*
X0059367Y0246408D01*
X0060367Y0245408D01*
X0064178Y0245408D01*
X0066872Y0248102D01*
X0066872Y0251403D01*
X0067867Y0250408D01*
X0071678Y0250408D01*
X0074372Y0253102D01*
X0074372Y0256913D01*
X0071678Y0259608D01*
X0067867Y0259608D01*
X0066672Y0258413D01*
X0066672Y0260008D01*
X0066672Y0261830D01*
X0064095Y0264408D01*
X0062272Y0264408D01*
X0060450Y0264408D01*
X0057872Y0261830D01*
X0057872Y0260008D01*
X0062272Y0260008D01*
X0062272Y0260008D01*
X0057872Y0260008D01*
X0057872Y0258185D01*
X0060450Y0255608D01*
X0062272Y0255608D01*
X0062272Y0260008D01*
X0062272Y0264408D01*
X0062272Y0260008D01*
X0062272Y0260008D01*
X0062272Y0260008D01*
X0062272Y0255608D01*
X0064095Y0255608D01*
X0065172Y0256685D01*
X0065172Y0253613D01*
X0064178Y0254608D01*
X0060367Y0254608D01*
X0059367Y0253608D01*
X0055572Y0253608D01*
X0054249Y0253060D01*
X0048392Y0247203D01*
X0048392Y0257115D01*
X0048773Y0258035D01*
X0048773Y0259619D01*
X0048392Y0260539D01*
X0048392Y0267321D01*
X0048405Y0267355D01*
X0048392Y0268035D01*
X0048392Y0268716D01*
X0048378Y0268750D01*
X0048377Y0268787D01*
X0048105Y0269410D01*
X0047844Y0270039D01*
X0047818Y0270065D01*
X0047803Y0270099D01*
X0047780Y0270121D01*
X0054483Y0270121D01*
X0054816Y0270259D01*
X0056037Y0270259D01*
X0057500Y0270865D01*
X0058620Y0271985D01*
X0059226Y0273448D01*
X0059226Y0275032D01*
X0058620Y0276495D01*
X0057500Y0277615D01*
X0056037Y0278221D01*
X0054453Y0278221D01*
X0052990Y0277615D01*
X0051870Y0276495D01*
X0051549Y0275721D01*
X0042381Y0275721D01*
X0043461Y0276801D01*
X0043461Y0280943D01*
X0043724Y0280943D01*
X0043724Y0280783D01*
X0048309Y0280783D01*
X0048309Y0280414D01*
X0048677Y0280414D01*
X0048677Y0275830D01*
X0048868Y0275830D01*
X0049610Y0275947D01*
X0050323Y0276179D01*
X0050992Y0276520D01*
X0051599Y0276961D01*
X0052130Y0277492D01*
X0052571Y0278099D01*
X0052912Y0278768D01*
X0053144Y0279482D01*
X0053261Y0280223D01*
X0053261Y0280414D01*
X0048677Y0280414D01*
X0048677Y0280783D01*
X0053261Y0280783D01*
X0053261Y0280943D01*
X0203179Y0280943D01*
X0202296Y0279416D01*
X0201567Y0276693D01*
X0201567Y0273874D01*
X0202296Y0271151D01*
X0203706Y0268710D01*
X0205699Y0266717D01*
X0208140Y0265308D01*
X0210863Y0264578D01*
X0213682Y0264578D01*
X0216405Y0265308D01*
X0218846Y0266717D01*
X0220839Y0268710D01*
X0222248Y0271151D01*
X0222978Y0273874D01*
X0222978Y0276693D01*
X0222248Y0279416D01*
X0221366Y0280943D01*
X0261948Y0280943D01*
X0261948Y0008679D01*
X0007400Y0008679D01*
X0007400Y0009473D02*
X0045038Y0009473D01*
X0045706Y0009196D02*
X0103799Y0009196D01*
X0105747Y0010003D01*
X0107238Y0011494D01*
X0124428Y0028684D01*
X0133248Y0028684D01*
X0135196Y0029491D01*
X0136687Y0030982D01*
X0137494Y0032930D01*
X0137494Y0061574D01*
X0136687Y0063522D01*
X0126628Y0073581D01*
X0126628Y0208049D01*
X0126711Y0208333D01*
X0126628Y0209095D01*
X0126628Y0209861D01*
X0126514Y0210135D01*
X0125996Y0214892D01*
X0125416Y0215950D01*
X0125416Y0216673D01*
X0124245Y0217844D01*
X0123609Y0217844D01*
X0123339Y0218062D01*
X0121315Y0218653D01*
X0119219Y0218424D01*
X0118161Y0217844D01*
X0117438Y0217844D01*
X0116267Y0216673D01*
X0116267Y0216038D01*
X0116049Y0215768D01*
X0115458Y0213744D01*
X0116028Y0208519D01*
X0116028Y0070332D01*
X0116451Y0069309D01*
X0114049Y0071711D01*
X0112558Y0073202D01*
X0110610Y0074009D01*
X0103294Y0074009D01*
X0112426Y0083142D01*
X0113346Y0083523D01*
X0114466Y0084643D01*
X0115072Y0086106D01*
X0115072Y0087690D01*
X0114466Y0089153D01*
X0113346Y0090273D01*
X0111883Y0090879D01*
X0110299Y0090879D01*
X0108836Y0090273D01*
X0107716Y0089153D01*
X0107335Y0088233D01*
X0099285Y0080183D01*
X0085139Y0080183D01*
X0083816Y0079635D01*
X0082803Y0078622D01*
X0073891Y0069710D01*
X0028820Y0069710D01*
X0027420Y0071110D01*
X0030059Y0073749D01*
X0030059Y0075028D01*
X0030362Y0075028D01*
X0030838Y0075020D01*
X0030858Y0075028D01*
X0066156Y0075028D01*
X0067074Y0075408D01*
X0073255Y0081589D01*
X0073959Y0082293D01*
X0074339Y0083211D01*
X0074339Y0204634D01*
X0075018Y0205312D01*
X0075624Y0206775D01*
X0075624Y0208359D01*
X0075018Y0209822D01*
X0073898Y0210942D01*
X0072434Y0211548D01*
X0071923Y0211548D01*
X0071923Y0211902D01*
X0071609Y0212661D01*
X0072894Y0212661D01*
X0074842Y0213468D01*
X0076332Y0214958D01*
X0078458Y0217084D01*
X0079151Y0217777D01*
X0079151Y0191288D01*
X0078606Y0189973D01*
X0078606Y0188389D01*
X0079212Y0186926D01*
X0080332Y0185806D01*
X0081129Y0185476D01*
X0076365Y0180713D01*
X0075465Y0179813D01*
X0074978Y0178637D01*
X0074978Y0099333D01*
X0074960Y0099285D01*
X0074978Y0098698D01*
X0074978Y0098112D01*
X0074998Y0098064D01*
X0074999Y0098012D01*
X0075241Y0097478D01*
X0075465Y0096935D01*
X0075502Y0096899D01*
X0075523Y0096852D01*
X0075950Y0096450D01*
X0076365Y0096035D01*
X0076413Y0096015D01*
X0083331Y0089515D01*
X0083331Y0089373D01*
X0083937Y0087910D01*
X0085057Y0086790D01*
X0086520Y0086184D01*
X0088104Y0086184D01*
X0089567Y0086790D01*
X0090687Y0087910D01*
X0091293Y0089373D01*
X0091293Y0090957D01*
X0090687Y0092420D01*
X0090580Y0092528D01*
X0091081Y0093028D01*
X0091687Y0094492D01*
X0091687Y0096075D01*
X0091081Y0097539D01*
X0090816Y0097803D01*
X0091199Y0098186D01*
X0091805Y0099649D01*
X0091805Y0101233D01*
X0091576Y0101785D01*
X0091968Y0101948D01*
X0093088Y0103068D01*
X0093694Y0104531D01*
X0093694Y0106115D01*
X0093571Y0106412D01*
X0094961Y0106987D01*
X0096081Y0108107D01*
X0096687Y0109570D01*
X0096687Y0111154D01*
X0096527Y0111539D01*
X0096804Y0111539D01*
X0098268Y0112145D01*
X0099388Y0113265D01*
X0099994Y0114728D01*
X0099994Y0116312D01*
X0099932Y0116460D01*
X0100308Y0116460D01*
X0101772Y0117066D01*
X0102892Y0118186D01*
X0103498Y0119649D01*
X0103498Y0121233D01*
X0102892Y0122696D01*
X0101965Y0123623D01*
X0101892Y0167832D01*
X0111462Y0177546D01*
X0111897Y0177972D01*
X0111908Y0177998D01*
X0111928Y0178019D01*
X0112157Y0178583D01*
X0112395Y0179143D01*
X0112395Y0179172D01*
X0112406Y0179198D01*
X0112402Y0179807D01*
X0112535Y0193538D01*
X0112734Y0193737D01*
X0113340Y0195200D01*
X0113340Y0196784D01*
X0112734Y0198247D01*
X0111614Y0199367D01*
X0110151Y0199973D01*
X0108567Y0199973D01*
X0107946Y0199716D01*
X0107924Y0199814D01*
X0107884Y0199870D01*
X0108380Y0201066D01*
X0108380Y0202650D01*
X0107773Y0204113D01*
X0106654Y0205233D01*
X0105190Y0205839D01*
X0103607Y0205839D01*
X0102835Y0205520D01*
X0102817Y0208895D01*
X0104235Y0208895D01*
X0104235Y0213270D01*
X0108610Y0213270D01*
X0108610Y0216081D01*
X0108487Y0216539D01*
X0108250Y0216950D01*
X0107915Y0217285D01*
X0107505Y0217522D01*
X0107047Y0217644D01*
X0105513Y0217644D01*
X0105827Y0217775D01*
X0106947Y0218894D01*
X0107553Y0220358D01*
X0107553Y0221941D01*
X0107393Y0222326D01*
X0107789Y0222326D01*
X0109252Y0222932D01*
X0110372Y0224052D01*
X0110978Y0225515D01*
X0110978Y0227099D01*
X0110372Y0228562D01*
X0110045Y0228889D01*
X0110176Y0230617D01*
X0116356Y0236699D01*
X0116369Y0236704D01*
X0116809Y0237145D01*
X0117254Y0237583D01*
X0117259Y0237595D01*
X0117269Y0237605D01*
X0117443Y0238026D01*
X0118521Y0236948D01*
X0119441Y0236567D01*
X0146783Y0209225D01*
X0146783Y0172874D01*
X0147331Y0171551D01*
X0148343Y0170539D01*
X0177517Y0141365D01*
X0178840Y0140817D01*
X0188395Y0140817D01*
X0189315Y0140436D01*
X0190899Y0140436D01*
X0192362Y0141042D01*
X0193482Y0142162D01*
X0194088Y0143625D01*
X0194088Y0144439D01*
X0195991Y0146342D01*
X0201017Y0146342D01*
X0201592Y0145767D01*
X0203055Y0145161D01*
X0204639Y0145161D01*
X0206102Y0145767D01*
X0207222Y0146887D01*
X0207828Y0148350D01*
X0207828Y0149934D01*
X0207222Y0151397D01*
X0206102Y0152517D01*
X0204639Y0153123D01*
X0203055Y0153123D01*
X0201592Y0152517D01*
X0201017Y0151942D01*
X0194275Y0151942D01*
X0193245Y0151515D01*
X0190128Y0148398D01*
X0189315Y0148398D01*
X0188395Y0148017D01*
X0181047Y0148017D01*
X0153983Y0175082D01*
X0153983Y0211433D01*
X0153435Y0212756D01*
X0124532Y0241658D01*
X0124151Y0242578D01*
X0123031Y0243698D01*
X0121568Y0244304D01*
X0119984Y0244304D01*
X0118521Y0243698D01*
X0117756Y0242932D01*
X0117756Y0244610D01*
X0118542Y0245351D01*
X0121452Y0245351D01*
X0122628Y0245838D01*
X0123529Y0246739D01*
X0125408Y0248618D01*
X0131094Y0248785D01*
X0131198Y0248680D01*
X0132662Y0248074D01*
X0134245Y0248074D01*
X0135709Y0248680D01*
X0136829Y0249800D01*
X0137435Y0251263D01*
X0137435Y0252847D01*
X0136829Y0254310D01*
X0136190Y0254949D01*
X0136671Y0255430D01*
X0137277Y0256893D01*
X0137277Y0258477D01*
X0136671Y0259940D01*
X0135934Y0260677D01*
X0136435Y0261178D01*
X0137041Y0262641D01*
X0137041Y0264225D01*
X0136435Y0265688D01*
X0135315Y0266808D01*
X0134213Y0267265D01*
X0134213Y0267814D01*
X0134388Y0267989D01*
X0134994Y0269452D01*
X0134994Y0270649D01*
X0140817Y0265346D01*
X0141146Y0265017D01*
X0141146Y0259465D01*
X0141953Y0257517D01*
X0146165Y0253305D01*
X0147656Y0251814D01*
X0149604Y0251007D01*
X0172400Y0251007D01*
X0175801Y0247606D01*
X0174900Y0247606D01*
X0173062Y0246845D01*
X0171656Y0245439D01*
X0170973Y0243791D01*
X0170291Y0245439D01*
X0168884Y0246845D01*
X0167047Y0247606D01*
X0165057Y0247606D01*
X0163220Y0246845D01*
X0161813Y0245439D01*
X0161131Y0243791D01*
X0160448Y0245439D01*
X0159042Y0246845D01*
X0157204Y0247606D01*
X0155215Y0247606D01*
X0153377Y0246845D01*
X0151971Y0245439D01*
X0151367Y0243981D01*
X0151367Y0246435D01*
X0150195Y0247606D01*
X0142538Y0247606D01*
X0141367Y0246435D01*
X0141367Y0238778D01*
X0142538Y0237606D01*
X0150195Y0237606D01*
X0151367Y0238778D01*
X0151367Y0241232D01*
X0151971Y0239774D01*
X0153377Y0238368D01*
X0155215Y0237606D01*
X0157204Y0237606D01*
X0159042Y0238368D01*
X0160448Y0239774D01*
X0161131Y0241422D01*
X0161813Y0239774D01*
X0163220Y0238368D01*
X0165057Y0237606D01*
X0167047Y0237606D01*
X0168884Y0238368D01*
X0170291Y0239774D01*
X0170973Y0241422D01*
X0171656Y0239774D01*
X0173062Y0238368D01*
X0174900Y0237606D01*
X0176889Y0237606D01*
X0178727Y0238368D01*
X0180133Y0239774D01*
X0180240Y0240032D01*
X0180240Y0238266D01*
X0175575Y0233601D01*
X0174768Y0231653D01*
X0174768Y0169308D01*
X0175575Y0167360D01*
X0177066Y0165869D01*
X0180971Y0161964D01*
X0180972Y0161961D01*
X0181716Y0161219D01*
X0182459Y0160475D01*
X0182462Y0160474D01*
X0182465Y0160472D01*
X0183439Y0160069D01*
X0184407Y0159669D01*
X0184411Y0159669D01*
X0184414Y0159667D01*
X0185465Y0159669D01*
X0186516Y0159669D01*
X0186519Y0159670D01*
X0243136Y0159741D01*
X0243668Y0159209D01*
X0245824Y0159209D01*
X0251106Y0151143D01*
X0251106Y0150279D01*
X0250500Y0150588D01*
X0249656Y0150862D01*
X0248815Y0150995D01*
X0248815Y0145842D01*
X0247856Y0145842D01*
X0247856Y0150995D01*
X0247015Y0150862D01*
X0246171Y0150588D01*
X0245380Y0150185D01*
X0244662Y0149663D01*
X0244035Y0149035D01*
X0243513Y0148317D01*
X0243110Y0147527D01*
X0242836Y0146683D01*
X0242703Y0145842D01*
X0247856Y0145842D01*
X0247856Y0144883D01*
X0242703Y0144883D01*
X0242836Y0144042D01*
X0243110Y0143198D01*
X0243513Y0142407D01*
X0244035Y0141689D01*
X0244662Y0141061D01*
X0245380Y0140540D01*
X0246171Y0140137D01*
X0247015Y0139862D01*
X0247856Y0139729D01*
X0247856Y0144883D01*
X0248815Y0144883D01*
X0248815Y0139729D01*
X0249656Y0139862D01*
X0250500Y0140137D01*
X0251106Y0140446D01*
X0251106Y0124214D01*
X0220862Y0088967D01*
X0220260Y0088364D01*
X0220232Y0088297D01*
X0218424Y0086489D01*
X0216924Y0086489D01*
X0218125Y0086986D01*
X0219467Y0088329D01*
X0220194Y0090082D01*
X0220194Y0091981D01*
X0219467Y0093734D01*
X0218233Y0094968D01*
X0219467Y0096203D01*
X0220194Y0097956D01*
X0220194Y0099855D01*
X0219467Y0101608D01*
X0218125Y0102951D01*
X0216371Y0103677D01*
X0214473Y0103677D01*
X0212719Y0102951D01*
X0211377Y0101608D01*
X0210650Y0099855D01*
X0210650Y0097956D01*
X0211377Y0096203D01*
X0212611Y0094968D01*
X0211377Y0093734D01*
X0210650Y0091981D01*
X0210650Y0090082D01*
X0211377Y0088329D01*
X0212719Y0086986D01*
X0214144Y0086396D01*
X0212420Y0085682D01*
X0210929Y0084191D01*
X0210122Y0082243D01*
X0210122Y0080135D01*
X0210929Y0078187D01*
X0212420Y0076696D01*
X0214368Y0075889D01*
X0219231Y0075889D01*
X0218804Y0075462D01*
X0218124Y0074609D01*
X0217544Y0073686D01*
X0217071Y0072704D01*
X0216711Y0071675D01*
X0216469Y0070613D01*
X0216375Y0069784D01*
X0225252Y0069784D01*
X0225252Y0068184D01*
X0226852Y0068184D01*
X0226852Y0059307D01*
X0227680Y0059401D01*
X0228743Y0059643D01*
X0229772Y0060003D01*
X0230754Y0060476D01*
X0231677Y0061056D01*
X0232529Y0061736D01*
X0233300Y0062507D01*
X0233980Y0063359D01*
X0234560Y0064282D01*
X0235033Y0065264D01*
X0235393Y0066293D01*
X0235635Y0067356D01*
X0235729Y0068184D01*
X0226852Y0068184D01*
X0226852Y0069784D01*
X0235729Y0069784D01*
X0235635Y0070613D01*
X0235393Y0071675D01*
X0235033Y0072704D01*
X0234560Y0073686D01*
X0233980Y0074609D01*
X0233300Y0075462D01*
X0232529Y0076232D01*
X0231677Y0076912D01*
X0230754Y0077492D01*
X0229772Y0077965D01*
X0228743Y0078325D01*
X0227680Y0078568D01*
X0226852Y0078661D01*
X0226852Y0069784D01*
X0225252Y0069784D01*
X0225252Y0078327D01*
X0227755Y0080830D01*
X0227982Y0081057D01*
X0228088Y0081111D01*
X0228405Y0081480D01*
X0229246Y0082321D01*
X0229357Y0082589D01*
X0260297Y0118647D01*
X0260899Y0119250D01*
X0260979Y0119442D01*
X0261115Y0119601D01*
X0261380Y0120410D01*
X0261706Y0121198D01*
X0261706Y0121406D01*
X0261771Y0121604D01*
X0261706Y0122454D01*
X0261706Y0152178D01*
X0261810Y0152675D01*
X0261706Y0153222D01*
X0261706Y0153779D01*
X0261512Y0154248D01*
X0261418Y0154746D01*
X0261112Y0155212D01*
X0260899Y0155727D01*
X0260540Y0156086D01*
X0254174Y0165806D01*
X0254174Y0169714D01*
X0253002Y0170886D01*
X0243668Y0170886D01*
X0243123Y0170341D01*
X0187654Y0170271D01*
X0185368Y0172558D01*
X0185368Y0209135D01*
X0185572Y0209018D01*
X0186030Y0208895D01*
X0188841Y0208895D01*
X0188841Y0213270D01*
X0188841Y0217644D01*
X0186030Y0217644D01*
X0185572Y0217522D01*
X0185368Y0217404D01*
X0185368Y0228403D01*
X0188542Y0231578D01*
X0190033Y0233069D01*
X0190840Y0235017D01*
X0190840Y0241077D01*
X0191037Y0241552D01*
X0191037Y0243661D01*
X0190998Y0243756D01*
X0190998Y0246259D01*
X0190191Y0248207D01*
X0188700Y0249698D01*
X0177597Y0260800D01*
X0175650Y0261607D01*
X0152854Y0261607D01*
X0151746Y0262715D01*
X0151746Y0267082D01*
X0152049Y0266349D01*
X0153456Y0264942D01*
X0155294Y0264181D01*
X0157283Y0264181D01*
X0159120Y0264942D01*
X0160527Y0266349D01*
X0161209Y0267996D01*
X0161892Y0266349D01*
X0163298Y0264942D01*
X0165136Y0264181D01*
X0167125Y0264181D01*
X0168963Y0264942D01*
X0170369Y0266349D01*
X0171052Y0267996D01*
X0171734Y0266349D01*
X0173141Y0264942D01*
X0174979Y0264181D01*
X0176968Y0264181D01*
X0178805Y0264942D01*
X0180212Y0266349D01*
X0180816Y0267806D01*
X0180816Y0265353D01*
X0181987Y0264181D01*
X0189644Y0264181D01*
X0190816Y0265353D01*
X0190816Y0273010D01*
X0189644Y0274181D01*
X0181987Y0274181D01*
X0180816Y0273010D01*
X0180816Y0270556D01*
X0180212Y0272013D01*
X0178805Y0273420D01*
X0176968Y0274181D01*
X0174979Y0274181D01*
X0173141Y0273420D01*
X0171734Y0272013D01*
X0171052Y0270366D01*
X0170369Y0272013D01*
X0168963Y0273420D01*
X0167125Y0274181D01*
X0165136Y0274181D01*
X0163298Y0273420D01*
X0161892Y0272013D01*
X0161209Y0270366D01*
X0160527Y0272013D01*
X0159120Y0273420D01*
X0157283Y0274181D01*
X0155294Y0274181D01*
X0153456Y0273420D01*
X0152049Y0272013D01*
X0151529Y0270758D01*
X0150939Y0272183D01*
X0149448Y0273674D01*
X0147500Y0274481D01*
X0146529Y0274481D01*
X0142222Y0278403D01*
X0142089Y0278579D01*
X0141547Y0279298D01*
X0141546Y0279299D01*
X0140778Y0279751D01*
X0140676Y0279811D01*
X0140219Y0280227D01*
X0138235Y0280942D01*
X0136129Y0280843D01*
X0135954Y0280761D01*
X0135680Y0280690D01*
X0088066Y0280767D01*
X0087732Y0280850D01*
X0087179Y0280768D01*
X0086621Y0280769D01*
X0086302Y0280638D01*
X0085961Y0280587D01*
X0085482Y0280300D01*
X0084966Y0280087D01*
X0084722Y0279843D01*
X0084249Y0279560D01*
X0083108Y0279560D01*
X0081160Y0278753D01*
X0079669Y0277262D01*
X0078862Y0275314D01*
X0078862Y0254369D01*
X0074113Y0249619D01*
X0072622Y0248128D01*
X0072510Y0247859D01*
X0071205Y0246553D01*
X0070398Y0244605D01*
X0070398Y0224014D01*
X0069644Y0223261D01*
X0067263Y0223261D01*
X0067859Y0223693D01*
X0068390Y0224224D01*
X0068831Y0224831D01*
X0069172Y0225500D01*
X0069404Y0226214D01*
X0069521Y0226955D01*
X0069521Y0227146D01*
X0064937Y0227146D01*
X0064937Y0227515D01*
X0064568Y0227515D01*
X0064568Y0227146D01*
X0059984Y0227146D01*
X0059984Y0226955D01*
X0060102Y0226214D01*
X0060334Y0225500D01*
X0060674Y0224831D01*
X0061116Y0224224D01*
X0061646Y0223693D01*
X0062242Y0223261D01*
X0057709Y0223261D01*
X0058965Y0224516D01*
X0059721Y0226342D01*
X0059721Y0228319D01*
X0058965Y0230145D01*
X0057567Y0231543D01*
X0055741Y0232299D01*
X0053764Y0232299D01*
X0051938Y0231543D01*
X0050541Y0230145D01*
X0049784Y0228319D01*
X0049784Y0226342D01*
X0050541Y0224516D01*
X0051796Y0223261D01*
X0049448Y0223261D01*
X0049721Y0223534D01*
X0049721Y0231128D01*
X0048550Y0232299D01*
X0040956Y0232299D01*
X0039784Y0231128D01*
X0039784Y0223534D01*
X0040057Y0223261D01*
X0039872Y0223261D01*
X0037924Y0222454D01*
X0033315Y0217844D01*
X0032832Y0217844D01*
X0031660Y0216673D01*
X0031660Y0216075D01*
X0030935Y0214324D01*
X0030935Y0212215D01*
X0031660Y0210465D01*
X0031660Y0209866D01*
X0032832Y0208695D01*
X0033430Y0208695D01*
X0035181Y0207970D01*
X0037289Y0207970D01*
X0039040Y0208695D01*
X0039638Y0208695D01*
X0040810Y0209866D01*
X0040810Y0210349D01*
X0043121Y0212661D01*
X0064275Y0212661D01*
X0063961Y0211902D01*
X0063961Y0210318D01*
X0064567Y0208855D01*
X0065087Y0208334D01*
X0065087Y0204944D01*
X0065468Y0204025D01*
X0066171Y0203322D01*
X0066171Y0203322D01*
X0067371Y0202122D01*
X0067371Y0194128D01*
X0064049Y0197580D01*
X0064041Y0197600D01*
X0063705Y0197938D01*
X0063375Y0198281D01*
X0063355Y0198290D01*
X0063339Y0198305D01*
X0062899Y0198488D01*
X0062463Y0198679D01*
X0062441Y0198679D01*
X0062421Y0198688D01*
X0061945Y0198689D01*
X0061469Y0198698D01*
X0061449Y0198690D01*
X0048245Y0198721D01*
X0047362Y0199603D01*
X0045899Y0200209D01*
X0044315Y0200209D01*
X0042852Y0199603D01*
X0041732Y0198483D01*
X0041126Y0197020D01*
X0041126Y0195436D01*
X0041732Y0193973D01*
X0042852Y0192853D01*
X0044315Y0192247D01*
X0045063Y0192247D01*
X0045063Y0191854D01*
X0045669Y0190391D01*
X0046789Y0189271D01*
X0048252Y0188665D01*
X0049836Y0188665D01*
X0051299Y0189271D01*
X0052419Y0190391D01*
X0052980Y0191746D01*
X0060098Y0191656D01*
X0063591Y0187853D01*
X0063591Y0179989D01*
X0061360Y0177390D01*
X0052647Y0177390D01*
X0051693Y0178344D01*
X0050230Y0178950D01*
X0048646Y0178950D01*
X0047183Y0178344D01*
X0046063Y0177224D01*
X0045457Y0175760D01*
X0045457Y0174177D01*
X0046063Y0172713D01*
X0047183Y0171593D01*
X0048646Y0170987D01*
X0050230Y0170987D01*
X0051693Y0171593D01*
X0052489Y0172390D01*
X0062109Y0172390D01*
X0062203Y0172359D01*
X0062604Y0172390D01*
X0063006Y0172390D01*
X0063097Y0172427D01*
X0063194Y0172435D01*
X0063553Y0172616D01*
X0063925Y0172770D01*
X0063994Y0172840D01*
X0064082Y0172884D01*
X0064344Y0173189D01*
X0064628Y0173474D01*
X0064666Y0173564D01*
X0065539Y0174582D01*
X0065553Y0172366D01*
X0060654Y0167406D01*
X0052500Y0167536D01*
X0051575Y0168462D01*
X0050112Y0169068D01*
X0048528Y0169068D01*
X0047065Y0168462D01*
X0045945Y0167342D01*
X0045339Y0165879D01*
X0045339Y0164295D01*
X0045945Y0162831D01*
X0047065Y0161712D01*
X0048528Y0161106D01*
X0050112Y0161106D01*
X0051575Y0161712D01*
X0052400Y0162537D01*
X0061173Y0162398D01*
X0061200Y0162387D01*
X0061669Y0162390D01*
X0062139Y0162382D01*
X0062166Y0162393D01*
X0062195Y0162393D01*
X0062627Y0162575D01*
X0063064Y0162748D01*
X0063085Y0162768D01*
X0063111Y0162779D01*
X0063441Y0163113D01*
X0063778Y0163440D01*
X0063790Y0163466D01*
X0067371Y0167092D01*
X0067371Y0085965D01*
X0063717Y0082311D01*
X0032836Y0082311D01*
X0032686Y0082461D01*
X0032686Y0086420D01*
X0033970Y0086420D01*
X0035433Y0087027D01*
X0036553Y0088146D01*
X0037159Y0089610D01*
X0037159Y0091193D01*
X0036553Y0092657D01*
X0035433Y0093777D01*
X0033970Y0094383D01*
X0033394Y0094383D01*
X0033394Y0097005D01*
X0033400Y0097018D01*
X0033394Y0097502D01*
X0033394Y0097985D01*
X0033389Y0097998D01*
X0033389Y0098012D01*
X0033199Y0098457D01*
X0033014Y0098904D01*
X0033004Y0098914D01*
X0032999Y0098927D01*
X0032653Y0099265D01*
X0032311Y0099608D01*
X0032298Y0099613D01*
X0028952Y0102887D01*
X0028933Y0102906D01*
X0029859Y0103832D01*
X0029859Y0105910D01*
X0024559Y0105910D01*
X0024559Y0106310D01*
X0029859Y0106310D01*
X0029859Y0108388D01*
X0027279Y0110969D01*
X0030059Y0113749D01*
X0030059Y0118471D01*
X0027420Y0121110D01*
X0030059Y0123749D01*
X0030059Y0126875D01*
X0031032Y0125901D01*
X0031032Y0113492D01*
X0030157Y0112617D01*
X0029551Y0111154D01*
X0029551Y0109570D01*
X0030157Y0108107D01*
X0031277Y0106987D01*
X0032740Y0106381D01*
X0034324Y0106381D01*
X0035787Y0106987D01*
X0036907Y0108107D01*
X0037513Y0109570D01*
X0037513Y0111154D01*
X0036907Y0112617D01*
X0036032Y0113492D01*
X0036032Y0127434D01*
X0035652Y0128353D01*
X0030059Y0133946D01*
X0030059Y0138471D01*
X0027420Y0141110D01*
X0030059Y0143749D01*
X0030059Y0148471D01*
X0027420Y0151110D01*
X0030059Y0153749D01*
X0030059Y0158471D01*
X0027420Y0161110D01*
X0030059Y0163749D01*
X0030059Y0168471D01*
X0027420Y0171110D01*
X0030059Y0173749D01*
X0030059Y0178471D01*
X0027279Y0181252D01*
X0029859Y0183832D01*
X0029859Y0185910D01*
X0024559Y0185910D01*
X0024559Y0186310D01*
X0029859Y0186310D01*
X0029859Y0188388D01*
X0027279Y0190969D01*
X0030059Y0193749D01*
X0030059Y0198471D01*
X0027420Y0201110D01*
X0030059Y0203749D01*
X0030059Y0208471D01*
X0027420Y0211110D01*
X0030059Y0213749D01*
X0030059Y0218471D01*
X0027420Y0221110D01*
X0030059Y0223749D01*
X0030059Y0223954D01*
X0030378Y0223822D01*
X0031962Y0223822D01*
X0033425Y0224428D01*
X0034545Y0225548D01*
X0035151Y0227011D01*
X0035151Y0228595D01*
X0034545Y0230058D01*
X0033670Y0230933D01*
X0033670Y0234048D01*
X0033289Y0234967D01*
X0030849Y0237408D01*
X0030145Y0238112D01*
X0030059Y0238147D01*
X0030059Y0238471D01*
X0027420Y0241110D01*
X0029230Y0242920D01*
X0032820Y0242806D01*
X0033797Y0241830D01*
X0035260Y0241224D01*
X0036844Y0241224D01*
X0038307Y0241830D01*
X0039427Y0242950D01*
X0040033Y0244413D01*
X0040033Y0245997D01*
X0039427Y0247460D01*
X0038307Y0248580D01*
X0036844Y0249186D01*
X0035260Y0249186D01*
X0033797Y0248580D01*
X0033020Y0247802D01*
X0030059Y0247897D01*
X0030059Y0248471D01*
X0027279Y0251252D01*
X0029859Y0253832D01*
X0029859Y0255910D01*
X0024559Y0255910D01*
X0024559Y0256310D01*
X0029859Y0256310D01*
X0029859Y0258388D01*
X0026637Y0261610D01*
X0024559Y0261610D01*
X0024559Y0256310D01*
X0024159Y0256310D01*
X0024159Y0261610D01*
X0022081Y0261610D01*
X0019500Y0259030D01*
X0016720Y0261810D01*
X0011998Y0261810D01*
X0008659Y0258471D01*
X0008659Y0253749D01*
X0011298Y0251110D01*
X0008659Y0248471D01*
X0008659Y0243749D01*
X0011298Y0241110D01*
X0008659Y0238471D01*
X0008659Y0233749D01*
X0011439Y0230969D01*
X0008859Y0228388D01*
X0008859Y0226310D01*
X0014159Y0226310D01*
X0014159Y0225910D01*
X0008859Y0225910D01*
X0008859Y0223832D01*
X0011439Y0221252D01*
X0008659Y0218471D01*
X0008659Y0213749D01*
X0011439Y0210969D01*
X0008859Y0208388D01*
X0008859Y0206310D01*
X0014159Y0206310D01*
X0014159Y0205910D01*
X0008859Y0205910D01*
X0008859Y0203832D01*
X0011439Y0201252D01*
X0008659Y0198471D01*
X0008659Y0193749D01*
X0011298Y0191110D01*
X0008659Y0188471D01*
X0008659Y0183749D01*
X0011298Y0181110D01*
X0008659Y0178471D01*
X0008659Y0173749D01*
X0011298Y0171110D01*
X0008659Y0168471D01*
X0008659Y0163749D01*
X0011439Y0160969D01*
X0008859Y0158388D01*
X0008859Y0156310D01*
X0014159Y0156310D01*
X0014159Y0155910D01*
X0008859Y0155910D01*
X0008859Y0153832D01*
X0011439Y0151252D01*
X0008659Y0148471D01*
X0008659Y0143749D01*
X0011298Y0141110D01*
X0008659Y0138471D01*
X0008659Y0133749D01*
X0011439Y0130969D01*
X0008859Y0128388D01*
X0008859Y0126310D01*
X0014159Y0126310D01*
X0014159Y0125910D01*
X0008859Y0125910D01*
X0008859Y0123832D01*
X0011439Y0121252D01*
X0008659Y0118471D01*
X0008659Y0113749D01*
X0011298Y0111110D01*
X0008659Y0108471D01*
X0008659Y0103749D01*
X0011298Y0101110D01*
X0008659Y0098471D01*
X0008659Y0093749D01*
X0011439Y0090969D01*
X0008859Y0088388D01*
X0008859Y0086310D01*
X0014159Y0086310D01*
X0014159Y0085910D01*
X0008859Y0085910D01*
X0008859Y0083832D01*
X0011439Y0081252D01*
X0008659Y0078471D01*
X0008659Y0073749D01*
X0011298Y0071110D01*
X0008659Y0068471D01*
X0008659Y0063749D01*
X0011998Y0060410D01*
X0016720Y0060410D01*
X0019359Y0063049D01*
X0021998Y0060410D01*
X0026720Y0060410D01*
X0028820Y0062510D01*
X0033830Y0062510D01*
X0033430Y0062344D01*
X0032832Y0062344D01*
X0031660Y0061173D01*
X0031660Y0060575D01*
X0030935Y0058824D01*
X0030935Y0056715D01*
X0031660Y0054965D01*
X0031660Y0054366D01*
X0032832Y0053195D01*
X0033315Y0053195D01*
X0033514Y0052995D01*
X0035462Y0052188D01*
X0042203Y0052188D01*
X0064036Y0030356D01*
X0063402Y0028827D01*
X0063402Y0025047D01*
X0064849Y0021556D01*
X0066608Y0019796D01*
X0051497Y0019796D01*
X0051497Y0020265D01*
X0050325Y0021437D01*
X0040991Y0021437D01*
X0039820Y0020265D01*
X0039820Y0010931D01*
X0040991Y0009760D01*
X0044345Y0009760D01*
X0045706Y0009196D01*
X0039820Y0011071D02*
X0007400Y0011071D01*
X0007400Y0012670D02*
X0039820Y0012670D01*
X0039820Y0014268D02*
X0007400Y0014268D01*
X0007400Y0015867D02*
X0039820Y0015867D01*
X0039820Y0017465D02*
X0007400Y0017465D01*
X0007400Y0019064D02*
X0039820Y0019064D01*
X0040217Y0020662D02*
X0007400Y0020662D01*
X0007400Y0022261D02*
X0064557Y0022261D01*
X0063894Y0023859D02*
X0007400Y0023859D01*
X0007400Y0025458D02*
X0063402Y0025458D01*
X0063402Y0027056D02*
X0007400Y0027056D01*
X0007400Y0028655D02*
X0063402Y0028655D01*
X0063993Y0030253D02*
X0048206Y0030253D01*
X0047823Y0030058D02*
X0048614Y0030461D01*
X0049332Y0030983D01*
X0049959Y0031610D01*
X0050481Y0032328D01*
X0050884Y0033119D01*
X0051158Y0033963D01*
X0051291Y0034804D01*
X0046138Y0034804D01*
X0046138Y0035763D01*
X0051291Y0035763D01*
X0051158Y0036604D01*
X0050884Y0037448D01*
X0050481Y0038239D01*
X0049959Y0038957D01*
X0049332Y0039584D01*
X0048614Y0040106D01*
X0047823Y0040509D01*
X0046979Y0040783D01*
X0046138Y0040916D01*
X0046138Y0035763D01*
X0045179Y0035763D01*
X0045179Y0040916D01*
X0044338Y0040783D01*
X0043494Y0040509D01*
X0042703Y0040106D01*
X0041985Y0039584D01*
X0041357Y0038957D01*
X0040836Y0038239D01*
X0040433Y0037448D01*
X0040159Y0036604D01*
X0040025Y0035763D01*
X0045179Y0035763D01*
X0045179Y0034804D01*
X0046138Y0034804D01*
X0046138Y0029651D01*
X0046979Y0029784D01*
X0047823Y0030058D01*
X0046138Y0030253D02*
X0045179Y0030253D01*
X0045179Y0029651D02*
X0045179Y0034804D01*
X0040025Y0034804D01*
X0040159Y0033963D01*
X0040433Y0033119D01*
X0040836Y0032328D01*
X0041357Y0031610D01*
X0041985Y0030983D01*
X0042703Y0030461D01*
X0043494Y0030058D01*
X0044338Y0029784D01*
X0045179Y0029651D01*
X0043110Y0030253D02*
X0007400Y0030253D01*
X0007400Y0031852D02*
X0041182Y0031852D01*
X0040325Y0033450D02*
X0007400Y0033450D01*
X0007400Y0035049D02*
X0045179Y0035049D01*
X0046138Y0035049D02*
X0059342Y0035049D01*
X0057744Y0036647D02*
X0051144Y0036647D01*
X0050476Y0038246D02*
X0056145Y0038246D01*
X0054547Y0039845D02*
X0048973Y0039845D01*
X0046138Y0039845D02*
X0045179Y0039845D01*
X0045179Y0038246D02*
X0046138Y0038246D01*
X0046138Y0036647D02*
X0045179Y0036647D01*
X0045179Y0033450D02*
X0046138Y0033450D01*
X0046138Y0031852D02*
X0045179Y0031852D01*
X0050135Y0031852D02*
X0062539Y0031852D01*
X0060941Y0033450D02*
X0050991Y0033450D01*
X0052948Y0041443D02*
X0028549Y0041443D01*
X0027926Y0040364D02*
X0029335Y0042805D01*
X0030065Y0045528D01*
X0030065Y0048346D01*
X0029335Y0051069D01*
X0027926Y0053510D01*
X0025932Y0055504D01*
X0023491Y0056913D01*
X0020768Y0057643D01*
X0017950Y0057643D01*
X0015227Y0056913D01*
X0012786Y0055504D01*
X0010793Y0053510D01*
X0009383Y0051069D01*
X0008654Y0048346D01*
X0008654Y0045528D01*
X0009383Y0042805D01*
X0010793Y0040364D01*
X0012786Y0038370D01*
X0015227Y0036961D01*
X0017950Y0036231D01*
X0020768Y0036231D01*
X0023491Y0036961D01*
X0025932Y0038370D01*
X0027926Y0040364D01*
X0027406Y0039845D02*
X0042343Y0039845D01*
X0040841Y0038246D02*
X0025717Y0038246D01*
X0022321Y0036647D02*
X0040173Y0036647D01*
X0048153Y0046239D02*
X0030065Y0046239D01*
X0030065Y0047837D02*
X0046554Y0047837D01*
X0044956Y0049436D02*
X0029773Y0049436D01*
X0029344Y0051034D02*
X0043357Y0051034D01*
X0049751Y0044640D02*
X0029827Y0044640D01*
X0029398Y0043042D02*
X0051350Y0043042D01*
X0058348Y0051034D02*
X0066736Y0051034D01*
X0066736Y0049436D02*
X0059946Y0049436D01*
X0061545Y0047837D02*
X0066736Y0047837D01*
X0066736Y0046239D02*
X0063143Y0046239D01*
X0064742Y0044640D02*
X0066736Y0044640D01*
X0066736Y0043042D02*
X0066340Y0043042D01*
X0066736Y0042646D02*
X0047401Y0061981D01*
X0046124Y0062510D01*
X0075272Y0062510D01*
X0069034Y0056273D01*
X0067543Y0054782D01*
X0066736Y0052834D01*
X0066736Y0042646D01*
X0066736Y0052633D02*
X0056749Y0052633D01*
X0055151Y0054231D02*
X0067315Y0054231D01*
X0068591Y0055830D02*
X0053552Y0055830D01*
X0051954Y0057428D02*
X0070190Y0057428D01*
X0071788Y0059027D02*
X0050355Y0059027D01*
X0048757Y0060625D02*
X0073387Y0060625D01*
X0074985Y0062224D02*
X0046816Y0062224D01*
X0034389Y0052633D02*
X0028432Y0052633D01*
X0027205Y0054231D02*
X0031796Y0054231D01*
X0031302Y0055830D02*
X0025368Y0055830D01*
X0026935Y0060625D02*
X0031660Y0060625D01*
X0031019Y0059027D02*
X0007400Y0059027D01*
X0007400Y0060625D02*
X0011783Y0060625D01*
X0010185Y0062224D02*
X0007400Y0062224D01*
X0007400Y0063822D02*
X0008659Y0063822D01*
X0008659Y0065421D02*
X0007400Y0065421D01*
X0007400Y0067019D02*
X0008659Y0067019D01*
X0008806Y0068618D02*
X0007400Y0068618D01*
X0007400Y0070216D02*
X0010404Y0070216D01*
X0010594Y0071815D02*
X0007400Y0071815D01*
X0007400Y0073413D02*
X0008995Y0073413D01*
X0008659Y0075012D02*
X0007400Y0075012D01*
X0007400Y0076610D02*
X0008659Y0076610D01*
X0008659Y0078209D02*
X0007400Y0078209D01*
X0007400Y0079807D02*
X0009995Y0079807D01*
X0011285Y0081406D02*
X0007400Y0081406D01*
X0007400Y0083004D02*
X0009687Y0083004D01*
X0008859Y0084603D02*
X0007400Y0084603D01*
X0007400Y0086201D02*
X0014159Y0086201D01*
X0009869Y0089398D02*
X0007400Y0089398D01*
X0007400Y0087800D02*
X0008859Y0087800D01*
X0007400Y0090997D02*
X0011411Y0090997D01*
X0009813Y0092595D02*
X0007400Y0092595D01*
X0007400Y0094194D02*
X0008659Y0094194D01*
X0008659Y0095792D02*
X0007400Y0095792D01*
X0007400Y0097391D02*
X0008659Y0097391D01*
X0009177Y0098989D02*
X0007400Y0098989D01*
X0007400Y0100588D02*
X0010776Y0100588D01*
X0010222Y0102186D02*
X0007400Y0102186D01*
X0007400Y0103785D02*
X0008659Y0103785D01*
X0008659Y0105383D02*
X0007400Y0105383D01*
X0007400Y0106982D02*
X0008659Y0106982D01*
X0008768Y0108580D02*
X0007400Y0108580D01*
X0007400Y0110179D02*
X0010367Y0110179D01*
X0010631Y0111778D02*
X0007400Y0111778D01*
X0007400Y0113376D02*
X0009032Y0113376D01*
X0008659Y0114975D02*
X0007400Y0114975D01*
X0007400Y0116573D02*
X0008659Y0116573D01*
X0008659Y0118172D02*
X0007400Y0118172D01*
X0007400Y0119770D02*
X0009958Y0119770D01*
X0011323Y0121369D02*
X0007400Y0121369D01*
X0007400Y0122967D02*
X0009724Y0122967D01*
X0008859Y0124566D02*
X0007400Y0124566D01*
X0007400Y0126164D02*
X0014159Y0126164D01*
X0009832Y0129361D02*
X0007400Y0129361D01*
X0007400Y0127763D02*
X0008859Y0127763D01*
X0007400Y0130960D02*
X0011430Y0130960D01*
X0009850Y0132558D02*
X0007400Y0132558D01*
X0007400Y0134157D02*
X0008659Y0134157D01*
X0008659Y0135755D02*
X0007400Y0135755D01*
X0007400Y0137354D02*
X0008659Y0137354D01*
X0009140Y0138952D02*
X0007400Y0138952D01*
X0007400Y0140551D02*
X0010739Y0140551D01*
X0010259Y0142149D02*
X0007400Y0142149D01*
X0007400Y0143748D02*
X0008661Y0143748D01*
X0008659Y0145346D02*
X0007400Y0145346D01*
X0007400Y0146945D02*
X0008659Y0146945D01*
X0008731Y0148543D02*
X0007400Y0148543D01*
X0007400Y0150142D02*
X0010330Y0150142D01*
X0010951Y0151740D02*
X0007400Y0151740D01*
X0007400Y0153339D02*
X0009352Y0153339D01*
X0008859Y0154937D02*
X0007400Y0154937D01*
X0007400Y0156536D02*
X0008859Y0156536D01*
X0008859Y0158134D02*
X0007400Y0158134D01*
X0007400Y0159733D02*
X0010204Y0159733D01*
X0011077Y0161331D02*
X0007400Y0161331D01*
X0007400Y0162930D02*
X0009478Y0162930D01*
X0008659Y0164528D02*
X0007400Y0164528D01*
X0007400Y0166127D02*
X0008659Y0166127D01*
X0008659Y0167725D02*
X0007400Y0167725D01*
X0007400Y0169324D02*
X0009512Y0169324D01*
X0011110Y0170922D02*
X0007400Y0170922D01*
X0007400Y0172521D02*
X0009887Y0172521D01*
X0008659Y0174119D02*
X0007400Y0174119D01*
X0007400Y0175718D02*
X0008659Y0175718D01*
X0008659Y0177316D02*
X0007400Y0177316D01*
X0007400Y0178915D02*
X0009103Y0178915D01*
X0010701Y0180513D02*
X0007400Y0180513D01*
X0007400Y0182112D02*
X0010296Y0182112D01*
X0008698Y0183711D02*
X0007400Y0183711D01*
X0007400Y0185309D02*
X0008659Y0185309D01*
X0008659Y0186908D02*
X0007400Y0186908D01*
X0007400Y0188506D02*
X0008694Y0188506D01*
X0007400Y0190105D02*
X0010292Y0190105D01*
X0010705Y0191703D02*
X0007400Y0191703D01*
X0007400Y0193302D02*
X0009107Y0193302D01*
X0008659Y0194900D02*
X0007400Y0194900D01*
X0007400Y0196499D02*
X0008659Y0196499D01*
X0008659Y0198097D02*
X0007400Y0198097D01*
X0007400Y0199696D02*
X0009883Y0199696D01*
X0011397Y0201294D02*
X0007400Y0201294D01*
X0007400Y0202893D02*
X0009798Y0202893D01*
X0008859Y0204491D02*
X0007400Y0204491D01*
X0007400Y0206090D02*
X0014159Y0206090D01*
X0009757Y0209287D02*
X0007400Y0209287D01*
X0007400Y0210885D02*
X0011356Y0210885D01*
X0009925Y0212484D02*
X0007400Y0212484D01*
X0007400Y0214082D02*
X0008659Y0214082D01*
X0008659Y0215681D02*
X0007400Y0215681D01*
X0007400Y0217279D02*
X0008659Y0217279D01*
X0009066Y0218878D02*
X0007400Y0218878D01*
X0007400Y0220476D02*
X0010664Y0220476D01*
X0010616Y0222075D02*
X0007400Y0222075D01*
X0007400Y0223673D02*
X0009018Y0223673D01*
X0008859Y0225272D02*
X0007400Y0225272D01*
X0007400Y0226870D02*
X0008859Y0226870D01*
X0008939Y0228469D02*
X0007400Y0228469D01*
X0007400Y0230067D02*
X0010538Y0230067D01*
X0010742Y0231666D02*
X0007400Y0231666D01*
X0007400Y0233264D02*
X0009144Y0233264D01*
X0008659Y0234863D02*
X0007400Y0234863D01*
X0007400Y0236461D02*
X0008659Y0236461D01*
X0008659Y0238060D02*
X0007400Y0238060D01*
X0007400Y0239658D02*
X0009846Y0239658D01*
X0011151Y0241257D02*
X0007400Y0241257D01*
X0007400Y0242855D02*
X0009553Y0242855D01*
X0008659Y0244454D02*
X0007400Y0244454D01*
X0007400Y0246052D02*
X0008659Y0246052D01*
X0008659Y0247651D02*
X0007400Y0247651D01*
X0007400Y0249249D02*
X0009437Y0249249D01*
X0011036Y0250848D02*
X0007400Y0250848D01*
X0007400Y0252447D02*
X0009962Y0252447D01*
X0008659Y0254045D02*
X0007400Y0254045D01*
X0007400Y0255644D02*
X0008659Y0255644D01*
X0008659Y0257242D02*
X0007400Y0257242D01*
X0007400Y0258841D02*
X0009028Y0258841D01*
X0010627Y0260439D02*
X0007400Y0260439D01*
X0007400Y0262038D02*
X0031109Y0262038D01*
X0029797Y0263636D02*
X0007400Y0263636D01*
X0007400Y0265235D02*
X0015499Y0265235D01*
X0012670Y0266833D02*
X0007400Y0266833D01*
X0007400Y0268432D02*
X0011071Y0268432D01*
X0010030Y0270030D02*
X0007400Y0270030D01*
X0007400Y0271629D02*
X0009255Y0271629D01*
X0008827Y0273227D02*
X0007400Y0273227D01*
X0007400Y0274826D02*
X0008654Y0274826D01*
X0008654Y0276424D02*
X0007400Y0276424D01*
X0007400Y0278023D02*
X0009010Y0278023D01*
X0009502Y0279621D02*
X0007400Y0279621D01*
X0023219Y0265235D02*
X0029394Y0265235D01*
X0029659Y0266833D02*
X0026049Y0266833D01*
X0027647Y0268432D02*
X0030775Y0268432D01*
X0028688Y0270030D02*
X0034949Y0270030D01*
X0036548Y0271629D02*
X0029463Y0271629D01*
X0029891Y0273227D02*
X0038146Y0273227D01*
X0039745Y0274826D02*
X0030065Y0274826D01*
X0030065Y0276424D02*
X0033902Y0276424D01*
X0033524Y0278023D02*
X0029708Y0278023D01*
X0029216Y0279621D02*
X0033524Y0279621D01*
X0043461Y0279621D02*
X0043820Y0279621D01*
X0043842Y0279482D02*
X0044074Y0278768D01*
X0044415Y0278099D01*
X0044856Y0277492D01*
X0045386Y0276961D01*
X0045994Y0276520D01*
X0046662Y0276179D01*
X0047376Y0275947D01*
X0048118Y0275830D01*
X0048309Y0275830D01*
X0048309Y0280414D01*
X0043724Y0280414D01*
X0043724Y0280223D01*
X0043842Y0279482D01*
X0043461Y0278023D02*
X0044470Y0278023D01*
X0043084Y0276424D02*
X0046182Y0276424D01*
X0048309Y0276424D02*
X0048677Y0276424D01*
X0048677Y0278023D02*
X0048309Y0278023D01*
X0048309Y0279621D02*
X0048677Y0279621D01*
X0050804Y0276424D02*
X0051840Y0276424D01*
X0052516Y0278023D02*
X0053974Y0278023D01*
X0053166Y0279621D02*
X0084351Y0279621D01*
X0080430Y0278023D02*
X0056516Y0278023D01*
X0058649Y0276424D02*
X0079322Y0276424D01*
X0078862Y0274826D02*
X0059226Y0274826D01*
X0059134Y0273227D02*
X0078862Y0273227D01*
X0078862Y0271629D02*
X0058263Y0271629D01*
X0055245Y0274240D02*
X0053926Y0272921D01*
X0041800Y0272921D01*
X0034241Y0265362D01*
X0033375Y0265402D01*
X0036953Y0263636D02*
X0041192Y0263636D01*
X0041192Y0262038D02*
X0035641Y0262038D01*
X0038073Y0265235D02*
X0041192Y0265235D01*
X0040568Y0266833D02*
X0039672Y0266833D01*
X0041151Y0260439D02*
X0027808Y0260439D01*
X0029407Y0258841D02*
X0040811Y0258841D01*
X0041139Y0257242D02*
X0029859Y0257242D01*
X0029859Y0255644D02*
X0041192Y0255644D01*
X0041192Y0254045D02*
X0029859Y0254045D01*
X0028473Y0252447D02*
X0041192Y0252447D01*
X0041192Y0250848D02*
X0027682Y0250848D01*
X0029281Y0249249D02*
X0041192Y0249249D01*
X0041192Y0247651D02*
X0039236Y0247651D01*
X0040010Y0246052D02*
X0041192Y0246052D01*
X0041192Y0244454D02*
X0040033Y0244454D01*
X0040370Y0242855D02*
X0039333Y0242855D01*
X0039824Y0241257D02*
X0036924Y0241257D01*
X0035180Y0241257D02*
X0027567Y0241257D01*
X0028872Y0239658D02*
X0039824Y0239658D01*
X0039824Y0238060D02*
X0030197Y0238060D01*
X0031795Y0236461D02*
X0039824Y0236461D01*
X0039824Y0234863D02*
X0033333Y0234863D01*
X0033670Y0233264D02*
X0070398Y0233264D01*
X0070398Y0231666D02*
X0066748Y0231666D01*
X0066583Y0231750D02*
X0065869Y0231982D01*
X0065128Y0232099D01*
X0064937Y0232099D01*
X0064937Y0227515D01*
X0069521Y0227515D01*
X0069521Y0227706D01*
X0069404Y0228447D01*
X0069172Y0229161D01*
X0068831Y0229830D01*
X0068390Y0230437D01*
X0067859Y0230968D01*
X0067252Y0231409D01*
X0066583Y0231750D01*
X0064937Y0231666D02*
X0064568Y0231666D01*
X0064568Y0232099D02*
X0064377Y0232099D01*
X0063636Y0231982D01*
X0062922Y0231750D01*
X0062254Y0231409D01*
X0061646Y0230968D01*
X0061116Y0230437D01*
X0060674Y0229830D01*
X0060334Y0229161D01*
X0060102Y0228447D01*
X0059984Y0227706D01*
X0059984Y0227515D01*
X0064568Y0227515D01*
X0064568Y0232099D01*
X0064608Y0233743D02*
X0064608Y0238327D01*
X0064976Y0238327D01*
X0064976Y0233743D01*
X0065167Y0233743D01*
X0065909Y0233861D01*
X0066623Y0234093D01*
X0067291Y0234433D01*
X0067899Y0234875D01*
X0068429Y0235405D01*
X0068871Y0236013D01*
X0069211Y0236681D01*
X0069443Y0237395D01*
X0069561Y0238137D01*
X0069561Y0238328D01*
X0064976Y0238328D01*
X0064976Y0238696D01*
X0064608Y0238696D01*
X0064608Y0243280D01*
X0064417Y0243280D01*
X0063675Y0243163D01*
X0062962Y0242931D01*
X0062293Y0242590D01*
X0061686Y0242149D01*
X0061155Y0241618D01*
X0060714Y0241011D01*
X0060373Y0240342D01*
X0060141Y0239628D01*
X0060024Y0238887D01*
X0060024Y0238696D01*
X0064608Y0238696D01*
X0064608Y0238328D01*
X0060024Y0238328D01*
X0060024Y0238137D01*
X0060141Y0237395D01*
X0060373Y0236681D01*
X0060714Y0236013D01*
X0061155Y0235405D01*
X0061686Y0234875D01*
X0062293Y0234433D01*
X0062962Y0234093D01*
X0063675Y0233861D01*
X0064417Y0233743D01*
X0064608Y0233743D01*
X0064608Y0234863D02*
X0064976Y0234863D01*
X0064976Y0236461D02*
X0064608Y0236461D01*
X0064608Y0238060D02*
X0064976Y0238060D01*
X0064976Y0238696D02*
X0069561Y0238696D01*
X0069561Y0238887D01*
X0069443Y0239628D01*
X0069211Y0240342D01*
X0068871Y0241011D01*
X0068429Y0241618D01*
X0067899Y0242149D01*
X0067291Y0242590D01*
X0066623Y0242931D01*
X0065909Y0243163D01*
X0065167Y0243280D01*
X0064976Y0243280D01*
X0064976Y0238696D01*
X0064976Y0239658D02*
X0064608Y0239658D01*
X0064608Y0241257D02*
X0064976Y0241257D01*
X0064976Y0242855D02*
X0064608Y0242855D01*
X0062813Y0242855D02*
X0057289Y0242855D01*
X0055825Y0244454D02*
X0070398Y0244454D01*
X0070398Y0242855D02*
X0066771Y0242855D01*
X0068692Y0241257D02*
X0070398Y0241257D01*
X0070398Y0239658D02*
X0069433Y0239658D01*
X0069548Y0238060D02*
X0070398Y0238060D01*
X0070398Y0236461D02*
X0069099Y0236461D01*
X0067882Y0234863D02*
X0070398Y0234863D01*
X0070398Y0230067D02*
X0068659Y0230067D01*
X0069397Y0228469D02*
X0070398Y0228469D01*
X0070398Y0226870D02*
X0069508Y0226870D01*
X0069055Y0225272D02*
X0070398Y0225272D01*
X0070057Y0223673D02*
X0067831Y0223673D01*
X0064937Y0228469D02*
X0064568Y0228469D01*
X0064568Y0230067D02*
X0064937Y0230067D01*
X0062757Y0231666D02*
X0057270Y0231666D01*
X0058997Y0230067D02*
X0060847Y0230067D01*
X0060109Y0228469D02*
X0059659Y0228469D01*
X0059721Y0226870D02*
X0059998Y0226870D01*
X0060450Y0225272D02*
X0059278Y0225272D01*
X0058122Y0223673D02*
X0061674Y0223673D01*
X0064202Y0212484D02*
X0042944Y0212484D01*
X0041346Y0210885D02*
X0063961Y0210885D01*
X0064388Y0209287D02*
X0040230Y0209287D01*
X0032240Y0209287D02*
X0029244Y0209287D01*
X0030059Y0207688D02*
X0065087Y0207688D01*
X0065087Y0206090D02*
X0030059Y0206090D01*
X0030059Y0204491D02*
X0065275Y0204491D01*
X0066600Y0202893D02*
X0029202Y0202893D01*
X0027604Y0201294D02*
X0067371Y0201294D01*
X0067371Y0199696D02*
X0047139Y0199696D01*
X0043075Y0199696D02*
X0028835Y0199696D01*
X0030059Y0198097D02*
X0041572Y0198097D01*
X0041126Y0196499D02*
X0030059Y0196499D01*
X0030059Y0194900D02*
X0041348Y0194900D01*
X0042404Y0193302D02*
X0029611Y0193302D01*
X0028013Y0191703D02*
X0045125Y0191703D01*
X0045955Y0190105D02*
X0028143Y0190105D01*
X0029741Y0188506D02*
X0062991Y0188506D01*
X0063591Y0186908D02*
X0029859Y0186908D01*
X0029859Y0185309D02*
X0063591Y0185309D01*
X0063591Y0183711D02*
X0029737Y0183711D01*
X0028139Y0182112D02*
X0063591Y0182112D01*
X0063591Y0180513D02*
X0028017Y0180513D01*
X0029615Y0178915D02*
X0048562Y0178915D01*
X0050313Y0178915D02*
X0062669Y0178915D01*
X0065142Y0174119D02*
X0065542Y0174119D01*
X0065552Y0172521D02*
X0063365Y0172521D01*
X0064127Y0170922D02*
X0027608Y0170922D01*
X0028831Y0172521D02*
X0046255Y0172521D01*
X0045480Y0174119D02*
X0030059Y0174119D01*
X0030059Y0175718D02*
X0045457Y0175718D01*
X0046156Y0177316D02*
X0030059Y0177316D01*
X0029206Y0169324D02*
X0062548Y0169324D01*
X0060969Y0167725D02*
X0052311Y0167725D01*
X0046328Y0167725D02*
X0030059Y0167725D01*
X0030059Y0166127D02*
X0045441Y0166127D01*
X0045339Y0164528D02*
X0030059Y0164528D01*
X0029240Y0162930D02*
X0045904Y0162930D01*
X0047983Y0161331D02*
X0027641Y0161331D01*
X0028797Y0159733D02*
X0067371Y0159733D01*
X0067371Y0161331D02*
X0050657Y0161331D01*
X0063260Y0162930D02*
X0067371Y0162930D01*
X0067371Y0164528D02*
X0064839Y0164528D01*
X0066418Y0166127D02*
X0067371Y0166127D01*
X0074339Y0166127D02*
X0074978Y0166127D01*
X0074978Y0167725D02*
X0074339Y0167725D01*
X0074339Y0169324D02*
X0074978Y0169324D01*
X0074978Y0170922D02*
X0074339Y0170922D01*
X0074339Y0172521D02*
X0074978Y0172521D01*
X0074978Y0174119D02*
X0074339Y0174119D01*
X0074339Y0175718D02*
X0074978Y0175718D01*
X0074978Y0177316D02*
X0074339Y0177316D01*
X0074339Y0178915D02*
X0075093Y0178915D01*
X0074339Y0180513D02*
X0076166Y0180513D01*
X0077764Y0182112D02*
X0074339Y0182112D01*
X0074339Y0183711D02*
X0079363Y0183711D01*
X0080962Y0185309D02*
X0074339Y0185309D01*
X0074339Y0186908D02*
X0079231Y0186908D01*
X0078606Y0188506D02*
X0074339Y0188506D01*
X0074339Y0190105D02*
X0078661Y0190105D01*
X0079151Y0191703D02*
X0074339Y0191703D01*
X0074339Y0193302D02*
X0079151Y0193302D01*
X0079151Y0194900D02*
X0074339Y0194900D01*
X0074339Y0196499D02*
X0079151Y0196499D01*
X0079151Y0198097D02*
X0074339Y0198097D01*
X0074339Y0199696D02*
X0079151Y0199696D01*
X0079151Y0201294D02*
X0074339Y0201294D01*
X0074339Y0202893D02*
X0079151Y0202893D01*
X0079151Y0204491D02*
X0074339Y0204491D01*
X0075340Y0206090D02*
X0079151Y0206090D01*
X0079151Y0207688D02*
X0075624Y0207688D01*
X0075239Y0209287D02*
X0079151Y0209287D01*
X0079151Y0210885D02*
X0073954Y0210885D01*
X0071682Y0212484D02*
X0079151Y0212484D01*
X0079151Y0214082D02*
X0075456Y0214082D01*
X0077055Y0215681D02*
X0079151Y0215681D01*
X0079151Y0217279D02*
X0078653Y0217279D01*
X0067371Y0198097D02*
X0063551Y0198097D01*
X0065090Y0196499D02*
X0067371Y0196499D01*
X0067371Y0194900D02*
X0066628Y0194900D01*
X0061523Y0190105D02*
X0052133Y0190105D01*
X0052963Y0191703D02*
X0056348Y0191703D01*
X0031486Y0210885D02*
X0027645Y0210885D01*
X0028794Y0212484D02*
X0030935Y0212484D01*
X0030935Y0214082D02*
X0030059Y0214082D01*
X0030059Y0215681D02*
X0031497Y0215681D01*
X0032267Y0217279D02*
X0030059Y0217279D01*
X0029653Y0218878D02*
X0034348Y0218878D01*
X0035946Y0220476D02*
X0028054Y0220476D01*
X0028385Y0222075D02*
X0037545Y0222075D01*
X0039784Y0223673D02*
X0029983Y0223673D01*
X0034269Y0225272D02*
X0039784Y0225272D01*
X0039784Y0226870D02*
X0035093Y0226870D01*
X0035151Y0228469D02*
X0039784Y0228469D01*
X0039784Y0230067D02*
X0034536Y0230067D01*
X0033670Y0231666D02*
X0040322Y0231666D01*
X0049183Y0231666D02*
X0052235Y0231666D01*
X0050508Y0230067D02*
X0049721Y0230067D01*
X0049721Y0228469D02*
X0049846Y0228469D01*
X0049784Y0226870D02*
X0049721Y0226870D01*
X0049721Y0225272D02*
X0050228Y0225272D01*
X0049721Y0223673D02*
X0051384Y0223673D01*
X0051415Y0234863D02*
X0049761Y0234863D01*
X0049761Y0236461D02*
X0050264Y0236461D01*
X0049824Y0238060D02*
X0049761Y0238060D01*
X0058170Y0234863D02*
X0061702Y0234863D01*
X0060485Y0236461D02*
X0059321Y0236461D01*
X0059761Y0238060D02*
X0060036Y0238060D01*
X0060151Y0239658D02*
X0059695Y0239658D01*
X0059033Y0241257D02*
X0060892Y0241257D01*
X0059722Y0246052D02*
X0057424Y0246052D01*
X0052037Y0250848D02*
X0048392Y0250848D01*
X0048392Y0249249D02*
X0050439Y0249249D01*
X0048840Y0247651D02*
X0048392Y0247651D01*
X0048392Y0252447D02*
X0053636Y0252447D01*
X0048392Y0254045D02*
X0059804Y0254045D01*
X0060414Y0255644D02*
X0048392Y0255644D01*
X0048445Y0257242D02*
X0058816Y0257242D01*
X0057872Y0258841D02*
X0048773Y0258841D01*
X0048433Y0260439D02*
X0057872Y0260439D01*
X0058080Y0262038D02*
X0048392Y0262038D01*
X0048392Y0263636D02*
X0059678Y0263636D01*
X0062272Y0263636D02*
X0062272Y0263636D01*
X0062272Y0262038D02*
X0062272Y0262038D01*
X0062272Y0260439D02*
X0062272Y0260439D01*
X0062273Y0260008D02*
X0066672Y0260008D01*
X0062273Y0260008D01*
X0062273Y0260008D01*
X0062272Y0258841D02*
X0062272Y0258841D01*
X0062272Y0257242D02*
X0062272Y0257242D01*
X0062272Y0255644D02*
X0062272Y0255644D01*
X0064131Y0255644D02*
X0065172Y0255644D01*
X0065172Y0254045D02*
X0064741Y0254045D01*
X0066872Y0250848D02*
X0067427Y0250848D01*
X0066872Y0249249D02*
X0073743Y0249249D01*
X0072302Y0247651D02*
X0066421Y0247651D01*
X0064822Y0246052D02*
X0070997Y0246052D01*
X0072118Y0250848D02*
X0075342Y0250848D01*
X0076940Y0252447D02*
X0073716Y0252447D01*
X0074372Y0254045D02*
X0078539Y0254045D01*
X0078862Y0255644D02*
X0074372Y0255644D01*
X0074044Y0257242D02*
X0078862Y0257242D01*
X0078862Y0258841D02*
X0072445Y0258841D01*
X0067100Y0258841D02*
X0066672Y0258841D01*
X0066672Y0260439D02*
X0078862Y0260439D01*
X0078862Y0262038D02*
X0066465Y0262038D01*
X0064867Y0263636D02*
X0078862Y0263636D01*
X0078862Y0265235D02*
X0048392Y0265235D01*
X0048392Y0266833D02*
X0078862Y0266833D01*
X0078862Y0268432D02*
X0048392Y0268432D01*
X0047848Y0270030D02*
X0078862Y0270030D01*
X0114490Y0234863D02*
X0121145Y0234863D01*
X0119547Y0236461D02*
X0116114Y0236461D01*
X0112866Y0233264D02*
X0122744Y0233264D01*
X0124342Y0231666D02*
X0111242Y0231666D01*
X0110134Y0230067D02*
X0125941Y0230067D01*
X0127539Y0228469D02*
X0110411Y0228469D01*
X0110978Y0226870D02*
X0129138Y0226870D01*
X0130736Y0225272D02*
X0110877Y0225272D01*
X0109993Y0223673D02*
X0132335Y0223673D01*
X0133933Y0222075D02*
X0107498Y0222075D01*
X0107553Y0220476D02*
X0135532Y0220476D01*
X0137130Y0218878D02*
X0106930Y0218878D01*
X0107921Y0217279D02*
X0116873Y0217279D01*
X0116024Y0215681D02*
X0108610Y0215681D01*
X0108610Y0214082D02*
X0115557Y0214082D01*
X0115596Y0212484D02*
X0108610Y0212484D01*
X0108610Y0213270D02*
X0104235Y0213270D01*
X0104235Y0213270D01*
X0104235Y0208895D01*
X0107047Y0208895D01*
X0107505Y0209018D01*
X0107915Y0209255D01*
X0108250Y0209590D01*
X0108487Y0210000D01*
X0108610Y0210458D01*
X0108610Y0213270D01*
X0108610Y0210885D02*
X0115770Y0210885D01*
X0115944Y0209287D02*
X0107947Y0209287D01*
X0104235Y0209287D02*
X0104235Y0209287D01*
X0104235Y0210885D02*
X0104235Y0210885D01*
X0104235Y0212484D02*
X0104235Y0212484D01*
X0104235Y0213270D02*
X0104235Y0213270D01*
X0102823Y0207688D02*
X0116028Y0207688D01*
X0116028Y0206090D02*
X0102832Y0206090D01*
X0107396Y0204491D02*
X0116028Y0204491D01*
X0116028Y0202893D02*
X0108279Y0202893D01*
X0108380Y0201294D02*
X0116028Y0201294D01*
X0116028Y0199696D02*
X0110821Y0199696D01*
X0112796Y0198097D02*
X0116028Y0198097D01*
X0116028Y0196499D02*
X0113340Y0196499D01*
X0113216Y0194900D02*
X0116028Y0194900D01*
X0116028Y0193302D02*
X0112533Y0193302D01*
X0112517Y0191703D02*
X0116028Y0191703D01*
X0116028Y0190105D02*
X0112502Y0190105D01*
X0112486Y0188506D02*
X0116028Y0188506D01*
X0116028Y0186908D02*
X0112471Y0186908D01*
X0112455Y0185309D02*
X0116028Y0185309D01*
X0116028Y0183711D02*
X0112440Y0183711D01*
X0112424Y0182112D02*
X0116028Y0182112D01*
X0116028Y0180513D02*
X0112409Y0180513D01*
X0112298Y0178915D02*
X0116028Y0178915D01*
X0116028Y0177316D02*
X0111236Y0177316D01*
X0109661Y0175718D02*
X0116028Y0175718D01*
X0116028Y0174119D02*
X0108086Y0174119D01*
X0106511Y0172521D02*
X0116028Y0172521D01*
X0116028Y0170922D02*
X0104936Y0170922D01*
X0103361Y0169324D02*
X0116028Y0169324D01*
X0116028Y0167725D02*
X0101892Y0167725D01*
X0101895Y0166127D02*
X0116028Y0166127D01*
X0116028Y0164528D02*
X0101897Y0164528D01*
X0101900Y0162930D02*
X0116028Y0162930D01*
X0116028Y0161331D02*
X0101903Y0161331D01*
X0101905Y0159733D02*
X0116028Y0159733D01*
X0116028Y0158134D02*
X0101908Y0158134D01*
X0101911Y0156536D02*
X0116028Y0156536D01*
X0116028Y0154937D02*
X0101913Y0154937D01*
X0101916Y0153339D02*
X0116028Y0153339D01*
X0116028Y0151740D02*
X0101918Y0151740D01*
X0101921Y0150142D02*
X0116028Y0150142D01*
X0116028Y0148543D02*
X0101924Y0148543D01*
X0101926Y0146945D02*
X0116028Y0146945D01*
X0116028Y0145346D02*
X0101929Y0145346D01*
X0101932Y0143748D02*
X0116028Y0143748D01*
X0116028Y0142149D02*
X0101934Y0142149D01*
X0101937Y0140551D02*
X0116028Y0140551D01*
X0116028Y0138952D02*
X0101940Y0138952D01*
X0101942Y0137354D02*
X0116028Y0137354D01*
X0116028Y0135755D02*
X0101945Y0135755D01*
X0101948Y0134157D02*
X0116028Y0134157D01*
X0116028Y0132558D02*
X0101950Y0132558D01*
X0101953Y0130960D02*
X0116028Y0130960D01*
X0116028Y0129361D02*
X0101955Y0129361D01*
X0101958Y0127763D02*
X0116028Y0127763D01*
X0116028Y0126164D02*
X0101961Y0126164D01*
X0101963Y0124566D02*
X0116028Y0124566D01*
X0116028Y0122967D02*
X0102620Y0122967D01*
X0103441Y0121369D02*
X0116028Y0121369D01*
X0116028Y0119770D02*
X0103498Y0119770D01*
X0102877Y0118172D02*
X0116028Y0118172D01*
X0116028Y0116573D02*
X0100582Y0116573D01*
X0099994Y0114975D02*
X0116028Y0114975D01*
X0116028Y0113376D02*
X0099434Y0113376D01*
X0097381Y0111778D02*
X0116028Y0111778D01*
X0116028Y0110179D02*
X0096687Y0110179D01*
X0096277Y0108580D02*
X0116028Y0108580D01*
X0116028Y0106982D02*
X0094948Y0106982D01*
X0093694Y0105383D02*
X0116028Y0105383D01*
X0116028Y0103785D02*
X0093385Y0103785D01*
X0092207Y0102186D02*
X0116028Y0102186D01*
X0116028Y0100588D02*
X0091805Y0100588D01*
X0091531Y0098989D02*
X0116028Y0098989D01*
X0116028Y0097391D02*
X0091142Y0097391D01*
X0091687Y0095792D02*
X0116028Y0095792D01*
X0116028Y0094194D02*
X0091563Y0094194D01*
X0090648Y0092595D02*
X0116028Y0092595D01*
X0116028Y0090997D02*
X0091277Y0090997D01*
X0091293Y0089398D02*
X0107962Y0089398D01*
X0106902Y0087800D02*
X0090576Y0087800D01*
X0088145Y0086201D02*
X0105304Y0086201D01*
X0103705Y0084603D02*
X0074339Y0084603D01*
X0074339Y0086201D02*
X0086479Y0086201D01*
X0084047Y0087800D02*
X0074339Y0087800D01*
X0074339Y0089398D02*
X0083331Y0089398D01*
X0081754Y0090997D02*
X0074339Y0090997D01*
X0074339Y0092595D02*
X0080053Y0092595D01*
X0078352Y0094194D02*
X0074339Y0094194D01*
X0074339Y0095792D02*
X0076650Y0095792D01*
X0075276Y0097391D02*
X0074339Y0097391D01*
X0074339Y0098989D02*
X0074969Y0098989D01*
X0074978Y0100588D02*
X0074339Y0100588D01*
X0074339Y0102186D02*
X0074978Y0102186D01*
X0074978Y0103785D02*
X0074339Y0103785D01*
X0074339Y0105383D02*
X0074978Y0105383D01*
X0074978Y0106982D02*
X0074339Y0106982D01*
X0074339Y0108580D02*
X0074978Y0108580D01*
X0074978Y0110179D02*
X0074339Y0110179D01*
X0074339Y0111778D02*
X0074978Y0111778D01*
X0074978Y0113376D02*
X0074339Y0113376D01*
X0074339Y0114975D02*
X0074978Y0114975D01*
X0074978Y0116573D02*
X0074339Y0116573D01*
X0074339Y0118172D02*
X0074978Y0118172D01*
X0074978Y0119770D02*
X0074339Y0119770D01*
X0074339Y0121369D02*
X0074978Y0121369D01*
X0074978Y0122967D02*
X0074339Y0122967D01*
X0074339Y0124566D02*
X0074978Y0124566D01*
X0074978Y0126164D02*
X0074339Y0126164D01*
X0074339Y0127763D02*
X0074978Y0127763D01*
X0074978Y0129361D02*
X0074339Y0129361D01*
X0074339Y0130960D02*
X0074978Y0130960D01*
X0074978Y0132558D02*
X0074339Y0132558D01*
X0074339Y0134157D02*
X0074978Y0134157D01*
X0074978Y0135755D02*
X0074339Y0135755D01*
X0074339Y0137354D02*
X0074978Y0137354D01*
X0074978Y0138952D02*
X0074339Y0138952D01*
X0074339Y0140551D02*
X0074978Y0140551D01*
X0074978Y0142149D02*
X0074339Y0142149D01*
X0074339Y0143748D02*
X0074978Y0143748D01*
X0074978Y0145346D02*
X0074339Y0145346D01*
X0074339Y0146945D02*
X0074978Y0146945D01*
X0074978Y0148543D02*
X0074339Y0148543D01*
X0074339Y0150142D02*
X0074978Y0150142D01*
X0074978Y0151740D02*
X0074339Y0151740D01*
X0074339Y0153339D02*
X0074978Y0153339D01*
X0074978Y0154937D02*
X0074339Y0154937D01*
X0074339Y0156536D02*
X0074978Y0156536D01*
X0074978Y0158134D02*
X0074339Y0158134D01*
X0074339Y0159733D02*
X0074978Y0159733D01*
X0074978Y0161331D02*
X0074339Y0161331D01*
X0074339Y0162930D02*
X0074978Y0162930D01*
X0074978Y0164528D02*
X0074339Y0164528D01*
X0067371Y0158134D02*
X0030059Y0158134D01*
X0030059Y0156536D02*
X0067371Y0156536D01*
X0067371Y0154937D02*
X0030059Y0154937D01*
X0029649Y0153339D02*
X0067371Y0153339D01*
X0067371Y0151740D02*
X0028050Y0151740D01*
X0028389Y0150142D02*
X0067371Y0150142D01*
X0067371Y0148543D02*
X0029987Y0148543D01*
X0030059Y0146945D02*
X0067371Y0146945D01*
X0067371Y0145346D02*
X0030059Y0145346D01*
X0030058Y0143748D02*
X0067371Y0143748D01*
X0067371Y0142149D02*
X0028459Y0142149D01*
X0027980Y0140551D02*
X0067371Y0140551D01*
X0067371Y0138952D02*
X0029578Y0138952D01*
X0030059Y0137354D02*
X0067371Y0137354D01*
X0067371Y0135755D02*
X0030059Y0135755D01*
X0030059Y0134157D02*
X0067371Y0134157D01*
X0067371Y0132558D02*
X0031447Y0132558D01*
X0033045Y0130960D02*
X0067371Y0130960D01*
X0067371Y0129361D02*
X0034644Y0129361D01*
X0035896Y0127763D02*
X0067371Y0127763D01*
X0067371Y0126164D02*
X0036032Y0126164D01*
X0036032Y0124566D02*
X0067371Y0124566D01*
X0067371Y0122967D02*
X0036032Y0122967D01*
X0036032Y0121369D02*
X0067371Y0121369D01*
X0067371Y0119770D02*
X0036032Y0119770D01*
X0036032Y0118172D02*
X0067371Y0118172D01*
X0067371Y0116573D02*
X0036032Y0116573D01*
X0036032Y0114975D02*
X0067371Y0114975D01*
X0067371Y0113376D02*
X0036149Y0113376D01*
X0037255Y0111778D02*
X0067371Y0111778D01*
X0067371Y0110179D02*
X0037513Y0110179D01*
X0037103Y0108580D02*
X0067371Y0108580D01*
X0067371Y0106982D02*
X0035775Y0106982D01*
X0031290Y0106982D02*
X0029859Y0106982D01*
X0029859Y0105383D02*
X0067371Y0105383D01*
X0067371Y0103785D02*
X0029812Y0103785D01*
X0029668Y0102186D02*
X0067371Y0102186D01*
X0067371Y0100588D02*
X0031302Y0100588D01*
X0032935Y0098989D02*
X0067371Y0098989D01*
X0067371Y0097391D02*
X0033396Y0097391D01*
X0033394Y0095792D02*
X0067371Y0095792D01*
X0067371Y0094194D02*
X0034426Y0094194D01*
X0036578Y0092595D02*
X0067371Y0092595D01*
X0067371Y0090997D02*
X0037159Y0090997D01*
X0037072Y0089398D02*
X0067371Y0089398D01*
X0067371Y0087800D02*
X0036206Y0087800D01*
X0032686Y0086201D02*
X0067371Y0086201D01*
X0066009Y0084603D02*
X0032686Y0084603D01*
X0032686Y0083004D02*
X0064411Y0083004D01*
X0069875Y0078209D02*
X0082390Y0078209D01*
X0080792Y0076610D02*
X0068277Y0076610D01*
X0071474Y0079807D02*
X0084233Y0079807D01*
X0079193Y0075012D02*
X0030059Y0075012D01*
X0029723Y0073413D02*
X0077595Y0073413D01*
X0075996Y0071815D02*
X0028125Y0071815D01*
X0028314Y0070216D02*
X0074397Y0070216D01*
X0073072Y0081406D02*
X0100508Y0081406D01*
X0102107Y0083004D02*
X0074254Y0083004D01*
X0091161Y0063409D02*
X0107361Y0063409D01*
X0116267Y0054503D01*
X0116267Y0054366D01*
X0117438Y0053195D01*
X0117690Y0053195D01*
X0119441Y0052470D01*
X0121896Y0052470D01*
X0123646Y0053195D01*
X0124245Y0053195D01*
X0125416Y0054366D01*
X0125416Y0054965D01*
X0126141Y0056715D01*
X0126141Y0058824D01*
X0125963Y0059256D01*
X0126894Y0058324D01*
X0126894Y0039284D01*
X0121179Y0039284D01*
X0119231Y0038477D01*
X0106093Y0025339D01*
X0106101Y0025377D01*
X0106187Y0026137D01*
X0097718Y0026137D01*
X0097718Y0027737D01*
X0096118Y0027737D01*
X0096118Y0026137D01*
X0087649Y0026137D01*
X0087735Y0025377D01*
X0087967Y0024358D01*
X0088312Y0023372D01*
X0088766Y0022431D01*
X0089321Y0021547D01*
X0089973Y0020730D01*
X0090711Y0019992D01*
X0090957Y0019796D01*
X0079196Y0019796D01*
X0080956Y0021556D01*
X0082402Y0025047D01*
X0082402Y0028827D01*
X0080956Y0032318D01*
X0078284Y0034991D01*
X0077336Y0035383D01*
X0077336Y0040130D01*
X0077768Y0039588D01*
X0078507Y0038850D01*
X0079323Y0038199D01*
X0080208Y0037643D01*
X0081149Y0037190D01*
X0082135Y0036845D01*
X0083153Y0036612D01*
X0083913Y0036527D01*
X0083913Y0044995D01*
X0085513Y0044995D01*
X0085513Y0036527D01*
X0086274Y0036612D01*
X0087292Y0036845D01*
X0088278Y0037190D01*
X0089219Y0037643D01*
X0090104Y0038199D01*
X0090920Y0038850D01*
X0091659Y0039588D01*
X0092310Y0040405D01*
X0092866Y0041290D01*
X0093319Y0042231D01*
X0093664Y0043217D01*
X0093896Y0044235D01*
X0093982Y0044995D01*
X0085513Y0044995D01*
X0085513Y0046595D01*
X0083913Y0046595D01*
X0083913Y0055064D01*
X0083153Y0054978D01*
X0082605Y0054853D01*
X0091161Y0063409D01*
X0089976Y0062224D02*
X0108546Y0062224D01*
X0107750Y0061450D02*
X0107415Y0061785D01*
X0107005Y0062022D01*
X0106547Y0062144D01*
X0103735Y0062144D01*
X0103735Y0057770D01*
X0103735Y0062144D01*
X0100923Y0062144D01*
X0100465Y0062022D01*
X0100055Y0061785D01*
X0099720Y0061450D01*
X0099483Y0061039D01*
X0099360Y0060581D01*
X0099360Y0057770D01*
X0103735Y0057770D01*
X0103735Y0057770D01*
X0103735Y0057770D01*
X0108110Y0057770D01*
X0108110Y0060581D01*
X0107987Y0061039D01*
X0107750Y0061450D01*
X0108098Y0060625D02*
X0110144Y0060625D01*
X0111743Y0059027D02*
X0108110Y0059027D01*
X0108110Y0057770D02*
X0103735Y0057770D01*
X0103735Y0057770D01*
X0099360Y0057770D01*
X0099360Y0054958D01*
X0099483Y0054500D01*
X0099720Y0054090D01*
X0100055Y0053755D01*
X0100465Y0053518D01*
X0100923Y0053395D01*
X0103735Y0053395D01*
X0103735Y0057770D01*
X0103735Y0053395D01*
X0106547Y0053395D01*
X0107005Y0053518D01*
X0107415Y0053755D01*
X0107750Y0054090D01*
X0107987Y0054500D01*
X0108110Y0054958D01*
X0108110Y0057770D01*
X0108110Y0057428D02*
X0113341Y0057428D01*
X0114940Y0055830D02*
X0108110Y0055830D01*
X0107832Y0054231D02*
X0116402Y0054231D01*
X0119047Y0052633D02*
X0091028Y0052633D01*
X0090920Y0052741D02*
X0091659Y0052002D01*
X0092310Y0051185D01*
X0092866Y0050301D01*
X0093319Y0049360D01*
X0093664Y0048374D01*
X0093896Y0047356D01*
X0093982Y0046595D01*
X0085513Y0046595D01*
X0085513Y0055064D01*
X0086274Y0054978D01*
X0087292Y0054746D01*
X0088278Y0054401D01*
X0089219Y0053948D01*
X0090104Y0053392D01*
X0090920Y0052741D01*
X0092405Y0051034D02*
X0126894Y0051034D01*
X0126894Y0049436D02*
X0093283Y0049436D01*
X0093787Y0047837D02*
X0126894Y0047837D01*
X0126894Y0046239D02*
X0085513Y0046239D01*
X0085513Y0047837D02*
X0083913Y0047837D01*
X0083913Y0049436D02*
X0085513Y0049436D01*
X0085513Y0051034D02*
X0083913Y0051034D01*
X0083913Y0052633D02*
X0085513Y0052633D01*
X0085513Y0054231D02*
X0083913Y0054231D01*
X0083582Y0055830D02*
X0099360Y0055830D01*
X0099360Y0057428D02*
X0085180Y0057428D01*
X0086779Y0059027D02*
X0099360Y0059027D01*
X0099372Y0060625D02*
X0088377Y0060625D01*
X0088630Y0054231D02*
X0099638Y0054231D01*
X0103735Y0054231D02*
X0103735Y0054231D01*
X0103735Y0055830D02*
X0103735Y0055830D01*
X0103735Y0057428D02*
X0103735Y0057428D01*
X0103735Y0057770D02*
X0103735Y0057770D01*
X0103735Y0059027D02*
X0103735Y0059027D01*
X0103735Y0060625D02*
X0103735Y0060625D01*
X0113945Y0071815D02*
X0116028Y0071815D01*
X0116028Y0073413D02*
X0112048Y0073413D01*
X0115544Y0070216D02*
X0116075Y0070216D01*
X0116028Y0075012D02*
X0104297Y0075012D01*
X0105895Y0076610D02*
X0116028Y0076610D01*
X0116028Y0078209D02*
X0107494Y0078209D01*
X0109092Y0079807D02*
X0116028Y0079807D01*
X0116028Y0081406D02*
X0110691Y0081406D01*
X0112289Y0083004D02*
X0116028Y0083004D01*
X0116028Y0084603D02*
X0114427Y0084603D01*
X0115072Y0086201D02*
X0116028Y0086201D01*
X0116028Y0087800D02*
X0115027Y0087800D01*
X0114221Y0089398D02*
X0116028Y0089398D01*
X0126628Y0089398D02*
X0210934Y0089398D01*
X0210650Y0090997D02*
X0126628Y0090997D01*
X0126628Y0092595D02*
X0210905Y0092595D01*
X0211836Y0094194D02*
X0126628Y0094194D01*
X0126628Y0095792D02*
X0211787Y0095792D01*
X0210885Y0097391D02*
X0126628Y0097391D01*
X0126628Y0098989D02*
X0210650Y0098989D01*
X0210954Y0100588D02*
X0126628Y0100588D01*
X0126628Y0102186D02*
X0211955Y0102186D01*
X0213026Y0104838D02*
X0213667Y0104511D01*
X0214352Y0104289D01*
X0215062Y0104176D01*
X0215336Y0104176D01*
X0215336Y0108662D01*
X0215508Y0108662D01*
X0215508Y0104176D01*
X0215782Y0104176D01*
X0216493Y0104289D01*
X0217177Y0104511D01*
X0217818Y0104838D01*
X0218400Y0105261D01*
X0218909Y0105770D01*
X0219332Y0106352D01*
X0219659Y0106993D01*
X0219881Y0107677D01*
X0219994Y0108388D01*
X0219994Y0108662D01*
X0215508Y0108662D01*
X0215508Y0108834D01*
X0215336Y0108834D01*
X0215336Y0108662D01*
X0210850Y0108662D01*
X0210850Y0108388D01*
X0210963Y0107677D01*
X0211185Y0106993D01*
X0211512Y0106352D01*
X0211935Y0105770D01*
X0212444Y0105261D01*
X0213026Y0104838D01*
X0212321Y0105383D02*
X0126628Y0105383D01*
X0126628Y0103785D02*
X0233577Y0103785D01*
X0234948Y0105383D02*
X0218523Y0105383D01*
X0219653Y0106982D02*
X0236320Y0106982D01*
X0237692Y0108580D02*
X0219994Y0108580D01*
X0219994Y0108834D02*
X0219994Y0109108D01*
X0219881Y0109819D01*
X0219659Y0110503D01*
X0219332Y0111144D01*
X0218909Y0111726D01*
X0218400Y0112235D01*
X0217818Y0112658D01*
X0217177Y0112985D01*
X0216493Y0113207D01*
X0215782Y0113320D01*
X0215508Y0113320D01*
X0215508Y0108834D01*
X0219994Y0108834D01*
X0219764Y0110179D02*
X0239063Y0110179D01*
X0240435Y0111778D02*
X0229216Y0111778D01*
X0228743Y0111612D02*
X0229772Y0111972D01*
X0230754Y0112445D01*
X0231677Y0113025D01*
X0232529Y0113705D01*
X0233300Y0114475D01*
X0233980Y0115328D01*
X0234560Y0116251D01*
X0235033Y0117233D01*
X0235393Y0118262D01*
X0235635Y0119324D01*
X0235729Y0120153D01*
X0226852Y0120153D01*
X0226852Y0121753D01*
X0225252Y0121753D01*
X0225252Y0130630D01*
X0224424Y0130536D01*
X0223361Y0130294D01*
X0222332Y0129934D01*
X0221350Y0129461D01*
X0220427Y0128881D01*
X0219575Y0128201D01*
X0218804Y0127430D01*
X0218124Y0126578D01*
X0217544Y0125655D01*
X0217071Y0124673D01*
X0216711Y0123644D01*
X0216469Y0122581D01*
X0216375Y0121753D01*
X0225252Y0121753D01*
X0225252Y0120153D01*
X0216375Y0120153D01*
X0216469Y0119324D01*
X0216711Y0118262D01*
X0217071Y0117233D01*
X0217544Y0116251D01*
X0218124Y0115328D01*
X0218804Y0114475D01*
X0219575Y0113705D01*
X0220427Y0113025D01*
X0221350Y0112445D01*
X0222332Y0111972D01*
X0223361Y0111612D01*
X0224424Y0111369D01*
X0225252Y0111276D01*
X0225252Y0120153D01*
X0226852Y0120153D01*
X0226852Y0111276D01*
X0227680Y0111369D01*
X0228743Y0111612D01*
X0226852Y0111778D02*
X0225252Y0111778D01*
X0225252Y0113376D02*
X0226852Y0113376D01*
X0226852Y0114975D02*
X0225252Y0114975D01*
X0225252Y0116573D02*
X0226852Y0116573D01*
X0226852Y0118172D02*
X0225252Y0118172D01*
X0225252Y0119770D02*
X0226852Y0119770D01*
X0226852Y0121369D02*
X0248665Y0121369D01*
X0250036Y0122967D02*
X0235547Y0122967D01*
X0235635Y0122581D02*
X0235393Y0123644D01*
X0235033Y0124673D01*
X0234560Y0125655D01*
X0233980Y0126578D01*
X0233300Y0127430D01*
X0232529Y0128201D01*
X0231677Y0128881D01*
X0230754Y0129461D01*
X0229772Y0129934D01*
X0228743Y0130294D01*
X0227680Y0130536D01*
X0226852Y0130630D01*
X0226852Y0121753D01*
X0235729Y0121753D01*
X0235635Y0122581D01*
X0235070Y0124566D02*
X0251106Y0124566D01*
X0251106Y0126164D02*
X0234240Y0126164D01*
X0232968Y0127763D02*
X0251106Y0127763D01*
X0251106Y0129361D02*
X0230912Y0129361D01*
X0226852Y0129361D02*
X0225252Y0129361D01*
X0225252Y0127763D02*
X0226852Y0127763D01*
X0226852Y0126164D02*
X0225252Y0126164D01*
X0225252Y0124566D02*
X0226852Y0124566D01*
X0226852Y0122967D02*
X0225252Y0122967D01*
X0225252Y0121369D02*
X0126628Y0121369D01*
X0126628Y0122967D02*
X0216557Y0122967D01*
X0217034Y0124566D02*
X0126628Y0124566D01*
X0126628Y0126164D02*
X0217864Y0126164D01*
X0219136Y0127763D02*
X0126628Y0127763D01*
X0126628Y0129361D02*
X0221191Y0129361D01*
X0216418Y0119770D02*
X0126628Y0119770D01*
X0126628Y0118172D02*
X0216743Y0118172D01*
X0217389Y0116573D02*
X0126628Y0116573D01*
X0126628Y0114975D02*
X0218406Y0114975D01*
X0219986Y0113376D02*
X0126628Y0113376D01*
X0126628Y0111778D02*
X0211986Y0111778D01*
X0211935Y0111726D02*
X0211512Y0111144D01*
X0211185Y0110503D01*
X0210963Y0109819D01*
X0210850Y0109108D01*
X0210850Y0108834D01*
X0215336Y0108834D01*
X0215336Y0113320D01*
X0215062Y0113320D01*
X0214352Y0113207D01*
X0213667Y0112985D01*
X0213026Y0112658D01*
X0212444Y0112235D01*
X0211935Y0111726D01*
X0211080Y0110179D02*
X0126628Y0110179D01*
X0126628Y0108580D02*
X0210850Y0108580D01*
X0211191Y0106982D02*
X0126628Y0106982D01*
X0126628Y0087800D02*
X0211906Y0087800D01*
X0213673Y0086201D02*
X0126628Y0086201D01*
X0126628Y0084603D02*
X0211341Y0084603D01*
X0210437Y0083004D02*
X0126628Y0083004D01*
X0126628Y0081406D02*
X0210122Y0081406D01*
X0210258Y0079807D02*
X0126628Y0079807D01*
X0126628Y0078209D02*
X0210920Y0078209D01*
X0212626Y0076610D02*
X0126628Y0076610D01*
X0126628Y0075012D02*
X0218445Y0075012D01*
X0217413Y0073413D02*
X0126795Y0073413D01*
X0128394Y0071815D02*
X0216760Y0071815D01*
X0216424Y0070216D02*
X0129992Y0070216D01*
X0131591Y0068618D02*
X0225252Y0068618D01*
X0225252Y0068184D02*
X0216375Y0068184D01*
X0216469Y0067356D01*
X0216711Y0066293D01*
X0217071Y0065264D01*
X0217544Y0064282D01*
X0218124Y0063359D01*
X0218804Y0062507D01*
X0219575Y0061736D01*
X0220427Y0061056D01*
X0221350Y0060476D01*
X0222332Y0060003D01*
X0223361Y0059643D01*
X0224424Y0059401D01*
X0225252Y0059307D01*
X0225252Y0068184D01*
X0225252Y0067019D02*
X0226852Y0067019D01*
X0226852Y0065421D02*
X0225252Y0065421D01*
X0225252Y0063822D02*
X0226852Y0063822D01*
X0226852Y0062224D02*
X0225252Y0062224D01*
X0225252Y0060625D02*
X0226852Y0060625D01*
X0230991Y0060625D02*
X0261948Y0060625D01*
X0261948Y0059027D02*
X0192716Y0059027D01*
X0192716Y0057770D02*
X0192716Y0060581D01*
X0192593Y0061039D01*
X0192356Y0061450D01*
X0192021Y0061785D01*
X0191611Y0062022D01*
X0191153Y0062144D01*
X0188341Y0062144D01*
X0185530Y0062144D01*
X0185072Y0062022D01*
X0184661Y0061785D01*
X0184326Y0061450D01*
X0184089Y0061039D01*
X0183967Y0060581D01*
X0183967Y0057770D01*
X0188341Y0057770D01*
X0188341Y0062144D01*
X0188341Y0057770D01*
X0188341Y0057770D01*
X0188341Y0057770D01*
X0183967Y0057770D01*
X0183967Y0054958D01*
X0184089Y0054500D01*
X0184326Y0054090D01*
X0184661Y0053755D01*
X0185072Y0053518D01*
X0185530Y0053395D01*
X0188341Y0053395D01*
X0188341Y0057770D01*
X0192716Y0057770D01*
X0188341Y0057770D01*
X0188341Y0057770D01*
X0188341Y0057770D01*
X0188341Y0053395D01*
X0191153Y0053395D01*
X0191611Y0053518D01*
X0192021Y0053755D01*
X0192356Y0054090D01*
X0192593Y0054500D01*
X0192716Y0054958D01*
X0192716Y0057770D01*
X0192716Y0057428D02*
X0210063Y0057428D01*
X0210863Y0057643D02*
X0208140Y0056913D01*
X0205699Y0055504D01*
X0203706Y0053510D01*
X0202296Y0051069D01*
X0201567Y0048346D01*
X0201567Y0045528D01*
X0202296Y0042805D01*
X0203706Y0040364D01*
X0205699Y0038370D01*
X0208140Y0036961D01*
X0210863Y0036231D01*
X0213682Y0036231D01*
X0216405Y0036961D01*
X0218846Y0038370D01*
X0220839Y0040364D01*
X0222248Y0042805D01*
X0222978Y0045528D01*
X0222978Y0048346D01*
X0222248Y0051069D01*
X0220839Y0053510D01*
X0218846Y0055504D01*
X0216405Y0056913D01*
X0213682Y0057643D01*
X0210863Y0057643D01*
X0214482Y0057428D02*
X0261948Y0057428D01*
X0261948Y0055830D02*
X0218281Y0055830D01*
X0220118Y0054231D02*
X0261948Y0054231D01*
X0261948Y0052633D02*
X0221346Y0052633D01*
X0222258Y0051034D02*
X0261948Y0051034D01*
X0261948Y0049436D02*
X0222686Y0049436D01*
X0222978Y0047837D02*
X0261948Y0047837D01*
X0261948Y0046239D02*
X0222978Y0046239D01*
X0222740Y0044640D02*
X0261948Y0044640D01*
X0261948Y0043042D02*
X0222312Y0043042D01*
X0221462Y0041443D02*
X0261948Y0041443D01*
X0261948Y0039845D02*
X0220320Y0039845D01*
X0218630Y0038246D02*
X0261948Y0038246D01*
X0261948Y0036647D02*
X0215234Y0036647D01*
X0209311Y0036647D02*
X0137494Y0036647D01*
X0137494Y0035049D02*
X0261948Y0035049D01*
X0261948Y0033450D02*
X0137494Y0033450D01*
X0137047Y0031852D02*
X0261948Y0031852D01*
X0261948Y0030253D02*
X0135958Y0030253D01*
X0137494Y0038246D02*
X0205915Y0038246D01*
X0204225Y0039845D02*
X0137494Y0039845D01*
X0137494Y0041443D02*
X0203083Y0041443D01*
X0202233Y0043042D02*
X0137494Y0043042D01*
X0137494Y0044640D02*
X0201805Y0044640D01*
X0201567Y0046239D02*
X0137494Y0046239D01*
X0137494Y0047837D02*
X0201567Y0047837D01*
X0201859Y0049436D02*
X0137494Y0049436D01*
X0137494Y0051034D02*
X0202287Y0051034D01*
X0203199Y0052633D02*
X0137494Y0052633D01*
X0137494Y0054231D02*
X0184245Y0054231D01*
X0183967Y0055830D02*
X0137494Y0055830D01*
X0137494Y0057428D02*
X0183967Y0057428D01*
X0183967Y0059027D02*
X0137494Y0059027D01*
X0137494Y0060625D02*
X0183978Y0060625D01*
X0188341Y0060625D02*
X0188341Y0060625D01*
X0188341Y0059027D02*
X0188341Y0059027D01*
X0188341Y0057428D02*
X0188341Y0057428D01*
X0188341Y0055830D02*
X0188341Y0055830D01*
X0188341Y0054231D02*
X0188341Y0054231D01*
X0192438Y0054231D02*
X0204427Y0054231D01*
X0206264Y0055830D02*
X0192716Y0055830D01*
X0192704Y0060625D02*
X0221113Y0060625D01*
X0219087Y0062224D02*
X0137225Y0062224D01*
X0136387Y0063822D02*
X0217833Y0063822D01*
X0217016Y0065421D02*
X0134788Y0065421D01*
X0133190Y0067019D02*
X0216545Y0067019D01*
X0225252Y0070216D02*
X0226852Y0070216D01*
X0226852Y0068618D02*
X0261948Y0068618D01*
X0261948Y0070216D02*
X0235680Y0070216D01*
X0235344Y0071815D02*
X0261948Y0071815D01*
X0261948Y0073413D02*
X0234691Y0073413D01*
X0233659Y0075012D02*
X0261948Y0075012D01*
X0261948Y0076610D02*
X0232056Y0076610D01*
X0229076Y0078209D02*
X0261948Y0078209D01*
X0261948Y0079807D02*
X0226733Y0079807D01*
X0226852Y0078209D02*
X0225252Y0078209D01*
X0225252Y0076610D02*
X0226852Y0076610D01*
X0226852Y0075012D02*
X0225252Y0075012D01*
X0225252Y0073413D02*
X0226852Y0073413D01*
X0226852Y0071815D02*
X0225252Y0071815D01*
X0228342Y0081406D02*
X0261948Y0081406D01*
X0261948Y0083004D02*
X0229713Y0083004D01*
X0231085Y0084603D02*
X0261948Y0084603D01*
X0261948Y0086201D02*
X0232456Y0086201D01*
X0233828Y0087800D02*
X0261948Y0087800D01*
X0261948Y0089398D02*
X0235200Y0089398D01*
X0236571Y0090997D02*
X0261948Y0090997D01*
X0261948Y0092595D02*
X0237943Y0092595D01*
X0239314Y0094194D02*
X0261948Y0094194D01*
X0261948Y0095792D02*
X0240686Y0095792D01*
X0242058Y0097391D02*
X0261948Y0097391D01*
X0261948Y0098989D02*
X0243429Y0098989D01*
X0244801Y0100588D02*
X0261948Y0100588D01*
X0261948Y0102186D02*
X0246173Y0102186D01*
X0247544Y0103785D02*
X0261948Y0103785D01*
X0261948Y0105383D02*
X0248916Y0105383D01*
X0250287Y0106982D02*
X0261948Y0106982D01*
X0261948Y0108580D02*
X0251659Y0108580D01*
X0253031Y0110179D02*
X0261948Y0110179D01*
X0261948Y0111778D02*
X0254402Y0111778D01*
X0255774Y0113376D02*
X0261948Y0113376D01*
X0261948Y0114975D02*
X0257145Y0114975D01*
X0258517Y0116573D02*
X0261948Y0116573D01*
X0261948Y0118172D02*
X0259889Y0118172D01*
X0261170Y0119770D02*
X0261948Y0119770D01*
X0261948Y0121369D02*
X0261706Y0121369D01*
X0261706Y0122967D02*
X0261948Y0122967D01*
X0261948Y0124566D02*
X0261706Y0124566D01*
X0261706Y0126164D02*
X0261948Y0126164D01*
X0261948Y0127763D02*
X0261706Y0127763D01*
X0261706Y0129361D02*
X0261948Y0129361D01*
X0261948Y0130960D02*
X0261706Y0130960D01*
X0261706Y0132558D02*
X0261948Y0132558D01*
X0261948Y0134157D02*
X0261706Y0134157D01*
X0261706Y0135755D02*
X0261948Y0135755D01*
X0261948Y0137354D02*
X0261706Y0137354D01*
X0261706Y0138952D02*
X0261948Y0138952D01*
X0261948Y0140551D02*
X0261706Y0140551D01*
X0261706Y0142149D02*
X0261948Y0142149D01*
X0261948Y0143748D02*
X0261706Y0143748D01*
X0261706Y0145346D02*
X0261948Y0145346D01*
X0261948Y0146945D02*
X0261706Y0146945D01*
X0261706Y0148543D02*
X0261948Y0148543D01*
X0261948Y0150142D02*
X0261706Y0150142D01*
X0261706Y0151740D02*
X0261948Y0151740D01*
X0261948Y0153339D02*
X0261706Y0153339D01*
X0261948Y0154937D02*
X0261293Y0154937D01*
X0261948Y0156536D02*
X0260246Y0156536D01*
X0259199Y0158134D02*
X0261948Y0158134D01*
X0261948Y0159733D02*
X0258152Y0159733D01*
X0257105Y0161331D02*
X0261948Y0161331D01*
X0261948Y0162930D02*
X0256058Y0162930D01*
X0255011Y0164528D02*
X0261948Y0164528D01*
X0261948Y0166127D02*
X0254174Y0166127D01*
X0254174Y0167725D02*
X0261948Y0167725D01*
X0261948Y0169324D02*
X0254174Y0169324D01*
X0261948Y0170922D02*
X0187003Y0170922D01*
X0185404Y0172521D02*
X0261948Y0172521D01*
X0261948Y0174119D02*
X0185368Y0174119D01*
X0185368Y0175718D02*
X0261948Y0175718D01*
X0261948Y0177316D02*
X0185368Y0177316D01*
X0185368Y0178915D02*
X0261948Y0178915D01*
X0261948Y0180513D02*
X0185368Y0180513D01*
X0185368Y0182112D02*
X0261948Y0182112D01*
X0261948Y0183711D02*
X0185368Y0183711D01*
X0185368Y0185309D02*
X0261948Y0185309D01*
X0261948Y0186908D02*
X0185368Y0186908D01*
X0185368Y0188506D02*
X0261948Y0188506D01*
X0261948Y0190105D02*
X0185368Y0190105D01*
X0185368Y0191703D02*
X0261948Y0191703D01*
X0261948Y0193302D02*
X0185368Y0193302D01*
X0185368Y0194900D02*
X0261948Y0194900D01*
X0261948Y0196499D02*
X0259831Y0196499D01*
X0259831Y0196258D02*
X0259831Y0203915D01*
X0258660Y0205087D01*
X0251003Y0205087D01*
X0249831Y0203915D01*
X0249831Y0196258D01*
X0251003Y0195087D01*
X0258660Y0195087D01*
X0259831Y0196258D01*
X0259831Y0198097D02*
X0261948Y0198097D01*
X0261948Y0199696D02*
X0259831Y0199696D01*
X0259831Y0201294D02*
X0261948Y0201294D01*
X0261948Y0202893D02*
X0259831Y0202893D01*
X0259255Y0204491D02*
X0261948Y0204491D01*
X0261948Y0206090D02*
X0257906Y0206090D01*
X0256903Y0205087D02*
X0259831Y0208016D01*
X0259831Y0212158D01*
X0256903Y0215087D01*
X0252760Y0215087D01*
X0249831Y0212158D01*
X0246903Y0215087D01*
X0249831Y0218016D01*
X0249831Y0222158D01*
X0246903Y0225087D01*
X0249831Y0228016D01*
X0249831Y0232158D01*
X0246903Y0235087D01*
X0249831Y0238016D01*
X0249831Y0242158D01*
X0246903Y0245087D01*
X0242760Y0245087D01*
X0239831Y0242158D01*
X0239831Y0238016D01*
X0242760Y0235087D01*
X0246903Y0235087D01*
X0242760Y0235087D01*
X0239831Y0232158D01*
X0239831Y0228016D01*
X0242760Y0225087D01*
X0246903Y0225087D01*
X0242760Y0225087D01*
X0239831Y0222158D01*
X0239831Y0218016D01*
X0242760Y0215087D01*
X0246903Y0215087D01*
X0242760Y0215087D01*
X0239831Y0212158D01*
X0239831Y0208016D01*
X0242760Y0205087D01*
X0246903Y0205087D01*
X0242760Y0205087D01*
X0239831Y0202158D01*
X0239831Y0198016D01*
X0242760Y0195087D01*
X0246903Y0195087D01*
X0249831Y0198016D01*
X0249831Y0202158D01*
X0246903Y0205087D01*
X0249831Y0208016D01*
X0252760Y0205087D01*
X0256903Y0205087D01*
X0259504Y0207688D02*
X0261948Y0207688D01*
X0261948Y0209287D02*
X0259831Y0209287D01*
X0259831Y0210885D02*
X0261948Y0210885D01*
X0261948Y0212484D02*
X0259505Y0212484D01*
X0257907Y0214082D02*
X0261948Y0214082D01*
X0261948Y0215681D02*
X0257214Y0215681D01*
X0256820Y0215287D02*
X0255031Y0215287D01*
X0255031Y0219887D01*
X0254631Y0219887D01*
X0250031Y0219887D01*
X0250031Y0218098D01*
X0252843Y0215287D01*
X0254631Y0215287D01*
X0254631Y0219887D01*
X0254631Y0220287D01*
X0250031Y0220287D01*
X0250031Y0222075D01*
X0252843Y0224887D01*
X0254631Y0224887D01*
X0254631Y0220287D01*
X0255031Y0220287D01*
X0255031Y0224887D01*
X0256820Y0224887D01*
X0259631Y0222075D01*
X0259631Y0220287D01*
X0255032Y0220287D01*
X0255032Y0219887D01*
X0259631Y0219887D01*
X0259631Y0218098D01*
X0256820Y0215287D01*
X0255031Y0215681D02*
X0254631Y0215681D01*
X0254631Y0217279D02*
X0255031Y0217279D01*
X0255031Y0218878D02*
X0254631Y0218878D01*
X0254631Y0220476D02*
X0255031Y0220476D01*
X0255031Y0222075D02*
X0254631Y0222075D01*
X0254631Y0223673D02*
X0255031Y0223673D01*
X0256903Y0225087D02*
X0252760Y0225087D01*
X0249831Y0228016D01*
X0249831Y0232158D01*
X0252760Y0235087D01*
X0256903Y0235087D01*
X0259831Y0238016D01*
X0259831Y0242158D01*
X0256903Y0245087D01*
X0252760Y0245087D01*
X0249831Y0242158D01*
X0249831Y0238016D01*
X0252760Y0235087D01*
X0256903Y0235087D01*
X0259831Y0232158D01*
X0259831Y0228016D01*
X0256903Y0225087D01*
X0257088Y0225272D02*
X0261948Y0225272D01*
X0261948Y0226870D02*
X0258686Y0226870D01*
X0259831Y0228469D02*
X0261948Y0228469D01*
X0261948Y0230067D02*
X0259831Y0230067D01*
X0259831Y0231666D02*
X0261948Y0231666D01*
X0261948Y0233264D02*
X0258725Y0233264D01*
X0257126Y0234863D02*
X0261948Y0234863D01*
X0261948Y0236461D02*
X0258277Y0236461D01*
X0259831Y0238060D02*
X0261948Y0238060D01*
X0261948Y0239658D02*
X0259831Y0239658D01*
X0259831Y0241257D02*
X0261948Y0241257D01*
X0261948Y0242855D02*
X0259134Y0242855D01*
X0257535Y0244454D02*
X0261948Y0244454D01*
X0261948Y0246052D02*
X0190998Y0246052D01*
X0190998Y0244454D02*
X0206773Y0244454D01*
X0207327Y0245008D02*
X0204398Y0242079D01*
X0204398Y0237937D01*
X0207327Y0235008D01*
X0211469Y0235008D01*
X0214398Y0237937D01*
X0214398Y0242079D01*
X0211469Y0245008D01*
X0207327Y0245008D01*
X0205175Y0242855D02*
X0191037Y0242855D01*
X0190915Y0241257D02*
X0204398Y0241257D01*
X0204398Y0239658D02*
X0190840Y0239658D01*
X0190840Y0238060D02*
X0204398Y0238060D01*
X0205874Y0236461D02*
X0190840Y0236461D01*
X0190776Y0234863D02*
X0207182Y0234863D01*
X0207327Y0235008D02*
X0204398Y0232079D01*
X0204398Y0227937D01*
X0207327Y0225008D01*
X0211469Y0225008D01*
X0214398Y0227937D01*
X0214398Y0232079D01*
X0211469Y0235008D01*
X0207327Y0235008D01*
X0205584Y0233264D02*
X0190114Y0233264D01*
X0188630Y0231666D02*
X0204398Y0231666D01*
X0204398Y0230067D02*
X0187032Y0230067D01*
X0185433Y0228469D02*
X0204398Y0228469D01*
X0205465Y0226870D02*
X0185368Y0226870D01*
X0185368Y0225272D02*
X0207063Y0225272D01*
X0207327Y0225008D02*
X0204398Y0222079D01*
X0204398Y0217937D01*
X0207327Y0215008D01*
X0211469Y0215008D01*
X0214398Y0217937D01*
X0214398Y0222079D01*
X0211469Y0225008D01*
X0207327Y0225008D01*
X0205993Y0223673D02*
X0185368Y0223673D01*
X0185368Y0222075D02*
X0204398Y0222075D01*
X0204398Y0220476D02*
X0185368Y0220476D01*
X0185368Y0218878D02*
X0204398Y0218878D01*
X0205056Y0217279D02*
X0192527Y0217279D01*
X0192521Y0217285D02*
X0192111Y0217522D01*
X0191653Y0217644D01*
X0188841Y0217644D01*
X0188841Y0213270D01*
X0188841Y0213270D01*
X0193216Y0213270D01*
X0193216Y0216081D01*
X0193093Y0216539D01*
X0192856Y0216950D01*
X0192521Y0217285D01*
X0193216Y0215681D02*
X0206654Y0215681D01*
X0207327Y0215008D02*
X0204398Y0212079D01*
X0204398Y0207937D01*
X0207327Y0205008D01*
X0211469Y0205008D01*
X0207327Y0205008D01*
X0204398Y0202079D01*
X0204398Y0197937D01*
X0207327Y0195008D01*
X0211469Y0195008D01*
X0214398Y0197937D01*
X0214398Y0202079D01*
X0211469Y0205008D01*
X0214398Y0207937D01*
X0214398Y0212079D01*
X0211469Y0215008D01*
X0207327Y0215008D01*
X0206402Y0214082D02*
X0193216Y0214082D01*
X0193216Y0213270D02*
X0188841Y0213270D01*
X0188841Y0213270D01*
X0188841Y0213270D01*
X0188841Y0208895D01*
X0191653Y0208895D01*
X0192111Y0209018D01*
X0192521Y0209255D01*
X0192856Y0209590D01*
X0193093Y0210000D01*
X0193216Y0210458D01*
X0193216Y0213270D01*
X0193216Y0212484D02*
X0204803Y0212484D01*
X0204398Y0210885D02*
X0193216Y0210885D01*
X0192554Y0209287D02*
X0204398Y0209287D01*
X0204647Y0207688D02*
X0185368Y0207688D01*
X0185368Y0206090D02*
X0206246Y0206090D01*
X0206811Y0204491D02*
X0185368Y0204491D01*
X0185368Y0202893D02*
X0205212Y0202893D01*
X0204398Y0201294D02*
X0185368Y0201294D01*
X0185368Y0199696D02*
X0204398Y0199696D01*
X0204398Y0198097D02*
X0185368Y0198097D01*
X0185368Y0196499D02*
X0205837Y0196499D01*
X0212960Y0196499D02*
X0214398Y0196499D01*
X0214398Y0196179D02*
X0215570Y0195008D01*
X0223227Y0195008D01*
X0224398Y0196179D01*
X0224398Y0203836D01*
X0223227Y0205008D01*
X0215570Y0205008D01*
X0214398Y0203836D01*
X0214398Y0196179D01*
X0214398Y0198097D02*
X0214398Y0198097D01*
X0214398Y0199696D02*
X0214398Y0199696D01*
X0214398Y0201294D02*
X0214398Y0201294D01*
X0214398Y0202893D02*
X0213585Y0202893D01*
X0215053Y0204491D02*
X0211986Y0204491D01*
X0212551Y0206090D02*
X0216246Y0206090D01*
X0217327Y0205008D02*
X0221469Y0205008D01*
X0224398Y0207937D01*
X0224398Y0212079D01*
X0221469Y0215008D01*
X0217327Y0215008D01*
X0214398Y0212079D01*
X0214398Y0207937D01*
X0217327Y0205008D01*
X0214647Y0207688D02*
X0214150Y0207688D01*
X0214398Y0209287D02*
X0214398Y0209287D01*
X0214398Y0210885D02*
X0214398Y0210885D01*
X0213994Y0212484D02*
X0214803Y0212484D01*
X0216402Y0214082D02*
X0212395Y0214082D01*
X0212142Y0215681D02*
X0216937Y0215681D01*
X0217410Y0215208D02*
X0214598Y0218020D01*
X0214598Y0219808D01*
X0219198Y0219808D01*
X0219198Y0220208D01*
X0214598Y0220208D01*
X0214598Y0221996D01*
X0217410Y0224808D01*
X0219198Y0224808D01*
X0219198Y0220208D01*
X0219598Y0220208D01*
X0219598Y0224808D01*
X0221387Y0224808D01*
X0224198Y0221996D01*
X0224198Y0220208D01*
X0219598Y0220208D01*
X0219598Y0219808D01*
X0219598Y0215208D01*
X0221387Y0215208D01*
X0224198Y0218020D01*
X0224198Y0219808D01*
X0219598Y0219808D01*
X0219198Y0219808D01*
X0219198Y0215208D01*
X0217410Y0215208D01*
X0219198Y0215681D02*
X0219598Y0215681D01*
X0219598Y0217279D02*
X0219198Y0217279D01*
X0219198Y0218878D02*
X0219598Y0218878D01*
X0219598Y0220476D02*
X0219198Y0220476D01*
X0219198Y0222075D02*
X0219598Y0222075D01*
X0219598Y0223673D02*
X0219198Y0223673D01*
X0217327Y0225008D02*
X0221469Y0225008D01*
X0224398Y0227937D01*
X0224398Y0232079D01*
X0221469Y0235008D01*
X0224398Y0237937D01*
X0224398Y0242079D01*
X0221469Y0245008D01*
X0217327Y0245008D01*
X0214398Y0242079D01*
X0214398Y0237937D01*
X0217327Y0235008D01*
X0221469Y0235008D01*
X0217327Y0235008D01*
X0214398Y0232079D01*
X0214398Y0227937D01*
X0217327Y0225008D01*
X0217063Y0225272D02*
X0211733Y0225272D01*
X0212804Y0223673D02*
X0216276Y0223673D01*
X0214677Y0222075D02*
X0214398Y0222075D01*
X0214398Y0220476D02*
X0214598Y0220476D01*
X0214598Y0218878D02*
X0214398Y0218878D01*
X0213741Y0217279D02*
X0215339Y0217279D01*
X0221860Y0215681D02*
X0242166Y0215681D01*
X0241756Y0214082D02*
X0222395Y0214082D01*
X0223994Y0212484D02*
X0240158Y0212484D01*
X0239831Y0210885D02*
X0224398Y0210885D01*
X0224398Y0209287D02*
X0239831Y0209287D01*
X0240159Y0207688D02*
X0224150Y0207688D01*
X0222551Y0206090D02*
X0241757Y0206090D01*
X0242165Y0204491D02*
X0223744Y0204491D01*
X0224398Y0202893D02*
X0240566Y0202893D01*
X0239831Y0201294D02*
X0224398Y0201294D01*
X0224398Y0199696D02*
X0239831Y0199696D01*
X0239831Y0198097D02*
X0224398Y0198097D01*
X0224398Y0196499D02*
X0241348Y0196499D01*
X0248315Y0196499D02*
X0249831Y0196499D01*
X0249831Y0198097D02*
X0249831Y0198097D01*
X0249831Y0199696D02*
X0249831Y0199696D01*
X0249831Y0201294D02*
X0249831Y0201294D01*
X0249831Y0202893D02*
X0249096Y0202893D01*
X0250408Y0204491D02*
X0247498Y0204491D01*
X0247906Y0206090D02*
X0251757Y0206090D01*
X0250159Y0207688D02*
X0249504Y0207688D01*
X0249831Y0208016D02*
X0249831Y0212158D01*
X0249831Y0208016D01*
X0249831Y0209287D02*
X0249831Y0209287D01*
X0249831Y0210885D02*
X0249831Y0210885D01*
X0249505Y0212484D02*
X0250158Y0212484D01*
X0251756Y0214082D02*
X0247907Y0214082D01*
X0247497Y0215681D02*
X0252449Y0215681D01*
X0250851Y0217279D02*
X0249095Y0217279D01*
X0249831Y0218878D02*
X0250031Y0218878D01*
X0250031Y0220476D02*
X0249831Y0220476D01*
X0249831Y0222075D02*
X0250031Y0222075D01*
X0251630Y0223673D02*
X0248316Y0223673D01*
X0247088Y0225272D02*
X0252575Y0225272D01*
X0250977Y0226870D02*
X0248686Y0226870D01*
X0249831Y0228469D02*
X0249831Y0228469D01*
X0249831Y0230067D02*
X0249831Y0230067D01*
X0249831Y0231666D02*
X0249831Y0231666D01*
X0248725Y0233264D02*
X0250938Y0233264D01*
X0252537Y0234863D02*
X0247126Y0234863D01*
X0248277Y0236461D02*
X0251386Y0236461D01*
X0249831Y0238060D02*
X0249831Y0238060D01*
X0249831Y0239658D02*
X0249831Y0239658D01*
X0249831Y0241257D02*
X0249831Y0241257D01*
X0249134Y0242855D02*
X0250529Y0242855D01*
X0252128Y0244454D02*
X0247535Y0244454D01*
X0242128Y0244454D02*
X0222023Y0244454D01*
X0223622Y0242855D02*
X0240529Y0242855D01*
X0239831Y0241257D02*
X0224398Y0241257D01*
X0224398Y0239658D02*
X0239831Y0239658D01*
X0239831Y0238060D02*
X0224398Y0238060D01*
X0222923Y0236461D02*
X0241386Y0236461D01*
X0242537Y0234863D02*
X0221614Y0234863D01*
X0223213Y0233264D02*
X0240938Y0233264D01*
X0239831Y0231666D02*
X0224398Y0231666D01*
X0224398Y0230067D02*
X0239831Y0230067D01*
X0239831Y0228469D02*
X0224398Y0228469D01*
X0223332Y0226870D02*
X0240977Y0226870D01*
X0242575Y0225272D02*
X0221733Y0225272D01*
X0222521Y0223673D02*
X0241347Y0223673D01*
X0239831Y0222075D02*
X0224120Y0222075D01*
X0224198Y0220476D02*
X0239831Y0220476D01*
X0239831Y0218878D02*
X0224198Y0218878D01*
X0223458Y0217279D02*
X0240568Y0217279D01*
X0258812Y0217279D02*
X0261948Y0217279D01*
X0261948Y0218878D02*
X0259631Y0218878D01*
X0259631Y0220476D02*
X0261948Y0220476D01*
X0261948Y0222075D02*
X0259631Y0222075D01*
X0258033Y0223673D02*
X0261948Y0223673D01*
X0261948Y0247651D02*
X0190421Y0247651D01*
X0189148Y0249249D02*
X0261948Y0249249D01*
X0261948Y0250848D02*
X0187550Y0250848D01*
X0185951Y0252447D02*
X0261948Y0252447D01*
X0261948Y0254045D02*
X0184353Y0254045D01*
X0182754Y0255644D02*
X0261948Y0255644D01*
X0261948Y0257242D02*
X0181156Y0257242D01*
X0179557Y0258841D02*
X0261948Y0258841D01*
X0261948Y0260439D02*
X0177959Y0260439D01*
X0179098Y0265235D02*
X0180934Y0265235D01*
X0180816Y0266833D02*
X0180413Y0266833D01*
X0180371Y0271629D02*
X0180816Y0271629D01*
X0181033Y0273227D02*
X0178998Y0273227D01*
X0172948Y0273227D02*
X0169156Y0273227D01*
X0170529Y0271629D02*
X0171575Y0271629D01*
X0171534Y0266833D02*
X0170570Y0266833D01*
X0169255Y0265235D02*
X0172849Y0265235D01*
X0163006Y0265235D02*
X0159413Y0265235D01*
X0160728Y0266833D02*
X0161691Y0266833D01*
X0161733Y0271629D02*
X0160686Y0271629D01*
X0159313Y0273227D02*
X0163106Y0273227D01*
X0153263Y0273227D02*
X0149895Y0273227D01*
X0151169Y0271629D02*
X0151890Y0271629D01*
X0151849Y0266833D02*
X0151746Y0266833D01*
X0151746Y0265235D02*
X0153164Y0265235D01*
X0151746Y0263636D02*
X0261948Y0263636D01*
X0261948Y0262038D02*
X0152423Y0262038D01*
X0145425Y0254045D02*
X0136938Y0254045D01*
X0136760Y0255644D02*
X0143826Y0255644D01*
X0142228Y0257242D02*
X0137277Y0257242D01*
X0137127Y0258841D02*
X0141405Y0258841D01*
X0141146Y0260439D02*
X0136172Y0260439D01*
X0136791Y0262038D02*
X0141146Y0262038D01*
X0141146Y0263636D02*
X0137041Y0263636D01*
X0136623Y0265235D02*
X0140928Y0265235D01*
X0139184Y0266833D02*
X0135255Y0266833D01*
X0134571Y0268432D02*
X0137428Y0268432D01*
X0135673Y0270030D02*
X0134994Y0270030D01*
X0142639Y0278023D02*
X0201923Y0278023D01*
X0201567Y0276424D02*
X0144395Y0276424D01*
X0146150Y0274826D02*
X0201567Y0274826D01*
X0201740Y0273227D02*
X0190598Y0273227D01*
X0190816Y0271629D02*
X0202169Y0271629D01*
X0202944Y0270030D02*
X0190816Y0270030D01*
X0190816Y0268432D02*
X0203984Y0268432D01*
X0205583Y0266833D02*
X0190816Y0266833D01*
X0190698Y0265235D02*
X0208412Y0265235D01*
X0216132Y0265235D02*
X0261948Y0265235D01*
X0261948Y0266833D02*
X0218962Y0266833D01*
X0220560Y0268432D02*
X0261948Y0268432D01*
X0261948Y0270030D02*
X0221601Y0270030D01*
X0222376Y0271629D02*
X0261948Y0271629D01*
X0261948Y0273227D02*
X0222805Y0273227D01*
X0222978Y0274826D02*
X0261948Y0274826D01*
X0261948Y0276424D02*
X0222978Y0276424D01*
X0222622Y0278023D02*
X0261948Y0278023D01*
X0261948Y0279621D02*
X0222130Y0279621D01*
X0202415Y0279621D02*
X0140998Y0279621D01*
X0141547Y0279298D02*
X0141547Y0279298D01*
X0137435Y0252447D02*
X0147024Y0252447D01*
X0151367Y0246052D02*
X0152585Y0246052D01*
X0151563Y0244454D02*
X0151367Y0244454D01*
X0151367Y0239658D02*
X0152086Y0239658D01*
X0150649Y0238060D02*
X0154120Y0238060D01*
X0158299Y0238060D02*
X0163962Y0238060D01*
X0161929Y0239658D02*
X0160333Y0239658D01*
X0161062Y0241257D02*
X0161199Y0241257D01*
X0161405Y0244454D02*
X0160856Y0244454D01*
X0159834Y0246052D02*
X0162427Y0246052D01*
X0169677Y0246052D02*
X0172270Y0246052D01*
X0171248Y0244454D02*
X0170699Y0244454D01*
X0170905Y0241257D02*
X0171041Y0241257D01*
X0171771Y0239658D02*
X0170175Y0239658D01*
X0168142Y0238060D02*
X0173805Y0238060D01*
X0177984Y0238060D02*
X0180034Y0238060D01*
X0180018Y0239658D02*
X0180240Y0239658D01*
X0178435Y0236461D02*
X0129729Y0236461D01*
X0131327Y0234863D02*
X0176837Y0234863D01*
X0175435Y0233264D02*
X0132926Y0233264D01*
X0134525Y0231666D02*
X0174773Y0231666D01*
X0174768Y0230067D02*
X0136123Y0230067D01*
X0137722Y0228469D02*
X0174768Y0228469D01*
X0174768Y0226870D02*
X0139320Y0226870D01*
X0140919Y0225272D02*
X0174768Y0225272D01*
X0174768Y0223673D02*
X0142517Y0223673D01*
X0144116Y0222075D02*
X0174768Y0222075D01*
X0174768Y0220476D02*
X0145714Y0220476D01*
X0147313Y0218878D02*
X0174768Y0218878D01*
X0174768Y0217279D02*
X0148911Y0217279D01*
X0150510Y0215681D02*
X0174768Y0215681D01*
X0174768Y0214082D02*
X0152108Y0214082D01*
X0153547Y0212484D02*
X0174768Y0212484D01*
X0174768Y0210885D02*
X0153983Y0210885D01*
X0153983Y0209287D02*
X0174768Y0209287D01*
X0174768Y0207688D02*
X0153983Y0207688D01*
X0153983Y0206090D02*
X0174768Y0206090D01*
X0174768Y0204491D02*
X0153983Y0204491D01*
X0153983Y0202893D02*
X0174768Y0202893D01*
X0174768Y0201294D02*
X0153983Y0201294D01*
X0153983Y0199696D02*
X0174768Y0199696D01*
X0174768Y0198097D02*
X0153983Y0198097D01*
X0153983Y0196499D02*
X0174768Y0196499D01*
X0174768Y0194900D02*
X0153983Y0194900D01*
X0153983Y0193302D02*
X0174768Y0193302D01*
X0174768Y0191703D02*
X0153983Y0191703D01*
X0153983Y0190105D02*
X0174768Y0190105D01*
X0174768Y0188506D02*
X0153983Y0188506D01*
X0153983Y0186908D02*
X0174768Y0186908D01*
X0174768Y0185309D02*
X0153983Y0185309D01*
X0153983Y0183711D02*
X0174768Y0183711D01*
X0174768Y0182112D02*
X0153983Y0182112D01*
X0153983Y0180513D02*
X0174768Y0180513D01*
X0174768Y0178915D02*
X0153983Y0178915D01*
X0153983Y0177316D02*
X0174768Y0177316D01*
X0174768Y0175718D02*
X0153983Y0175718D01*
X0154945Y0174119D02*
X0174768Y0174119D01*
X0174768Y0172521D02*
X0156543Y0172521D01*
X0158142Y0170922D02*
X0174768Y0170922D01*
X0174768Y0169324D02*
X0159740Y0169324D01*
X0161339Y0167725D02*
X0175423Y0167725D01*
X0176808Y0166127D02*
X0162937Y0166127D01*
X0164536Y0164528D02*
X0178406Y0164528D01*
X0180005Y0162930D02*
X0166135Y0162930D01*
X0167733Y0161331D02*
X0181603Y0161331D01*
X0184252Y0159733D02*
X0169332Y0159733D01*
X0170930Y0158134D02*
X0246527Y0158134D01*
X0247574Y0156536D02*
X0172529Y0156536D01*
X0174127Y0154937D02*
X0248621Y0154937D01*
X0249668Y0153339D02*
X0175726Y0153339D01*
X0177324Y0151740D02*
X0193788Y0151740D01*
X0191872Y0150142D02*
X0178923Y0150142D01*
X0180521Y0148543D02*
X0190273Y0148543D01*
X0190107Y0144417D02*
X0194831Y0149142D01*
X0203847Y0149142D01*
X0206879Y0151740D02*
X0250715Y0151740D01*
X0248815Y0150142D02*
X0247856Y0150142D01*
X0247856Y0148543D02*
X0248815Y0148543D01*
X0248815Y0146945D02*
X0247856Y0146945D01*
X0247856Y0145346D02*
X0205087Y0145346D01*
X0202607Y0145346D02*
X0194996Y0145346D01*
X0194088Y0143748D02*
X0242931Y0143748D01*
X0243700Y0142149D02*
X0193469Y0142149D01*
X0191175Y0140551D02*
X0245365Y0140551D01*
X0247856Y0140551D02*
X0248815Y0140551D01*
X0248815Y0142149D02*
X0247856Y0142149D01*
X0247856Y0143748D02*
X0248815Y0143748D01*
X0251106Y0138952D02*
X0126628Y0138952D01*
X0126628Y0137354D02*
X0251106Y0137354D01*
X0251106Y0135755D02*
X0126628Y0135755D01*
X0126628Y0134157D02*
X0251106Y0134157D01*
X0251106Y0132558D02*
X0126628Y0132558D01*
X0126628Y0130960D02*
X0251106Y0130960D01*
X0247293Y0119770D02*
X0235686Y0119770D01*
X0235361Y0118172D02*
X0245921Y0118172D01*
X0244550Y0116573D02*
X0234715Y0116573D01*
X0233698Y0114975D02*
X0243178Y0114975D01*
X0241807Y0113376D02*
X0232117Y0113376D01*
X0222887Y0111778D02*
X0218858Y0111778D01*
X0215508Y0111778D02*
X0215336Y0111778D01*
X0215336Y0110179D02*
X0215508Y0110179D01*
X0215508Y0108580D02*
X0215336Y0108580D01*
X0215336Y0106982D02*
X0215508Y0106982D01*
X0215508Y0105383D02*
X0215336Y0105383D01*
X0218889Y0102186D02*
X0232205Y0102186D01*
X0230834Y0100588D02*
X0219890Y0100588D01*
X0220194Y0098989D02*
X0229462Y0098989D01*
X0228090Y0097391D02*
X0219959Y0097391D01*
X0219057Y0095792D02*
X0226719Y0095792D01*
X0225347Y0094194D02*
X0219008Y0094194D01*
X0219939Y0092595D02*
X0223976Y0092595D01*
X0222604Y0090997D02*
X0220194Y0090997D01*
X0219910Y0089398D02*
X0221232Y0089398D01*
X0219734Y0087800D02*
X0218939Y0087800D01*
X0235559Y0067019D02*
X0261948Y0067019D01*
X0261948Y0065421D02*
X0235088Y0065421D01*
X0234271Y0063822D02*
X0261948Y0063822D01*
X0261948Y0062224D02*
X0233017Y0062224D01*
X0261948Y0028655D02*
X0124399Y0028655D01*
X0122801Y0027056D02*
X0261948Y0027056D01*
X0261948Y0025458D02*
X0121202Y0025458D01*
X0119604Y0023859D02*
X0261948Y0023859D01*
X0261948Y0022261D02*
X0118005Y0022261D01*
X0116407Y0020662D02*
X0261948Y0020662D01*
X0261948Y0019064D02*
X0114808Y0019064D01*
X0113209Y0017465D02*
X0261948Y0017465D01*
X0261948Y0015867D02*
X0111611Y0015867D01*
X0110012Y0014268D02*
X0261948Y0014268D01*
X0261948Y0012670D02*
X0108414Y0012670D01*
X0106815Y0011071D02*
X0261948Y0011071D01*
X0261948Y0009473D02*
X0104467Y0009473D01*
X0106110Y0025458D02*
X0106211Y0025458D01*
X0107810Y0027056D02*
X0097718Y0027056D01*
X0097718Y0027737D02*
X0106187Y0027737D01*
X0106101Y0028497D01*
X0105869Y0029516D01*
X0105524Y0030502D01*
X0105070Y0031443D01*
X0104515Y0032327D01*
X0103863Y0033144D01*
X0103125Y0033882D01*
X0102308Y0034534D01*
X0101424Y0035089D01*
X0100483Y0035543D01*
X0099497Y0035888D01*
X0098478Y0036120D01*
X0097718Y0036206D01*
X0097718Y0027737D01*
X0097718Y0028655D02*
X0096118Y0028655D01*
X0096118Y0027737D02*
X0096118Y0036206D01*
X0095358Y0036120D01*
X0094339Y0035888D01*
X0093354Y0035543D01*
X0092412Y0035089D01*
X0091528Y0034534D01*
X0090711Y0033882D01*
X0089973Y0033144D01*
X0089321Y0032327D01*
X0088766Y0031443D01*
X0088312Y0030502D01*
X0087967Y0029516D01*
X0087735Y0028497D01*
X0087649Y0027737D01*
X0096118Y0027737D01*
X0096118Y0027056D02*
X0082402Y0027056D01*
X0082402Y0025458D02*
X0087726Y0025458D01*
X0088142Y0023859D02*
X0081910Y0023859D01*
X0081248Y0022261D02*
X0088873Y0022261D01*
X0090041Y0020662D02*
X0080063Y0020662D01*
X0082402Y0028655D02*
X0087771Y0028655D01*
X0088226Y0030253D02*
X0081811Y0030253D01*
X0081149Y0031852D02*
X0089023Y0031852D01*
X0090279Y0033450D02*
X0079824Y0033450D01*
X0078143Y0035049D02*
X0092348Y0035049D01*
X0096118Y0035049D02*
X0097718Y0035049D01*
X0097718Y0033450D02*
X0096118Y0033450D01*
X0096118Y0031852D02*
X0097718Y0031852D01*
X0097718Y0030253D02*
X0096118Y0030253D01*
X0101488Y0035049D02*
X0115802Y0035049D01*
X0114204Y0033450D02*
X0103557Y0033450D01*
X0104813Y0031852D02*
X0112605Y0031852D01*
X0111007Y0030253D02*
X0105611Y0030253D01*
X0106065Y0028655D02*
X0109408Y0028655D01*
X0117401Y0036647D02*
X0086428Y0036647D01*
X0085513Y0036647D02*
X0083913Y0036647D01*
X0082999Y0036647D02*
X0077336Y0036647D01*
X0077336Y0038246D02*
X0079264Y0038246D01*
X0077564Y0039845D02*
X0077336Y0039845D01*
X0083913Y0039845D02*
X0085513Y0039845D01*
X0085513Y0041443D02*
X0083913Y0041443D01*
X0083913Y0043042D02*
X0085513Y0043042D01*
X0085513Y0044640D02*
X0083913Y0044640D01*
X0083913Y0038246D02*
X0085513Y0038246D01*
X0090163Y0038246D02*
X0118999Y0038246D01*
X0126894Y0039845D02*
X0091863Y0039845D01*
X0092940Y0041443D02*
X0126894Y0041443D01*
X0126894Y0043042D02*
X0093603Y0043042D01*
X0093942Y0044640D02*
X0126894Y0044640D01*
X0126894Y0052633D02*
X0122289Y0052633D01*
X0125281Y0054231D02*
X0126894Y0054231D01*
X0126894Y0055830D02*
X0125774Y0055830D01*
X0126141Y0057428D02*
X0126894Y0057428D01*
X0126191Y0059027D02*
X0126057Y0059027D01*
X0065742Y0020662D02*
X0051100Y0020662D01*
X0030935Y0057428D02*
X0021569Y0057428D01*
X0021783Y0060625D02*
X0016935Y0060625D01*
X0018533Y0062224D02*
X0020185Y0062224D01*
X0017150Y0057428D02*
X0007400Y0057428D01*
X0007400Y0055830D02*
X0013350Y0055830D01*
X0011513Y0054231D02*
X0007400Y0054231D01*
X0007400Y0052633D02*
X0010286Y0052633D01*
X0009374Y0051034D02*
X0007400Y0051034D01*
X0007400Y0049436D02*
X0008945Y0049436D01*
X0008654Y0047837D02*
X0007400Y0047837D01*
X0007400Y0046239D02*
X0008654Y0046239D01*
X0008891Y0044640D02*
X0007400Y0044640D01*
X0007400Y0043042D02*
X0009320Y0043042D01*
X0010169Y0041443D02*
X0007400Y0041443D01*
X0007400Y0039845D02*
X0011312Y0039845D01*
X0013001Y0038246D02*
X0007400Y0038246D01*
X0007400Y0036647D02*
X0016397Y0036647D01*
X0028533Y0062224D02*
X0032711Y0062224D01*
X0029961Y0108580D02*
X0029667Y0108580D01*
X0029551Y0110179D02*
X0028068Y0110179D01*
X0028087Y0111778D02*
X0029809Y0111778D01*
X0029686Y0113376D02*
X0030916Y0113376D01*
X0031032Y0114975D02*
X0030059Y0114975D01*
X0030059Y0116573D02*
X0031032Y0116573D01*
X0031032Y0118172D02*
X0030059Y0118172D01*
X0031032Y0119770D02*
X0028760Y0119770D01*
X0027678Y0121369D02*
X0031032Y0121369D01*
X0031032Y0122967D02*
X0029277Y0122967D01*
X0030059Y0124566D02*
X0031032Y0124566D01*
X0030770Y0126164D02*
X0030059Y0126164D01*
X0008859Y0207688D02*
X0007400Y0207688D01*
X0029165Y0242855D02*
X0031273Y0242855D01*
X0024559Y0257242D02*
X0024159Y0257242D01*
X0024159Y0258841D02*
X0024559Y0258841D01*
X0024559Y0260439D02*
X0024159Y0260439D01*
X0020910Y0260439D02*
X0018091Y0260439D01*
X0117756Y0244454D02*
X0141367Y0244454D01*
X0141367Y0246052D02*
X0122843Y0246052D01*
X0124441Y0247651D02*
X0175756Y0247651D01*
X0174158Y0249249D02*
X0136278Y0249249D01*
X0137263Y0250848D02*
X0172559Y0250848D01*
X0141367Y0242855D02*
X0123874Y0242855D01*
X0124933Y0241257D02*
X0141367Y0241257D01*
X0141367Y0239658D02*
X0126532Y0239658D01*
X0128130Y0238060D02*
X0142085Y0238060D01*
X0138729Y0217279D02*
X0124810Y0217279D01*
X0125564Y0215681D02*
X0140327Y0215681D01*
X0141926Y0214082D02*
X0126084Y0214082D01*
X0126258Y0212484D02*
X0143524Y0212484D01*
X0145123Y0210885D02*
X0126432Y0210885D01*
X0126628Y0209287D02*
X0146721Y0209287D01*
X0146783Y0207688D02*
X0126628Y0207688D01*
X0126628Y0206090D02*
X0146783Y0206090D01*
X0146783Y0204491D02*
X0126628Y0204491D01*
X0126628Y0202893D02*
X0146783Y0202893D01*
X0146783Y0201294D02*
X0126628Y0201294D01*
X0126628Y0199696D02*
X0146783Y0199696D01*
X0146783Y0198097D02*
X0126628Y0198097D01*
X0126628Y0196499D02*
X0146783Y0196499D01*
X0146783Y0194900D02*
X0126628Y0194900D01*
X0126628Y0193302D02*
X0146783Y0193302D01*
X0146783Y0191703D02*
X0126628Y0191703D01*
X0126628Y0190105D02*
X0146783Y0190105D01*
X0146783Y0188506D02*
X0126628Y0188506D01*
X0126628Y0186908D02*
X0146783Y0186908D01*
X0146783Y0185309D02*
X0126628Y0185309D01*
X0126628Y0183711D02*
X0146783Y0183711D01*
X0146783Y0182112D02*
X0126628Y0182112D01*
X0126628Y0180513D02*
X0146783Y0180513D01*
X0146783Y0178915D02*
X0126628Y0178915D01*
X0126628Y0177316D02*
X0146783Y0177316D01*
X0146783Y0175718D02*
X0126628Y0175718D01*
X0126628Y0174119D02*
X0146783Y0174119D01*
X0146929Y0172521D02*
X0126628Y0172521D01*
X0126628Y0170922D02*
X0147960Y0170922D01*
X0149558Y0169324D02*
X0126628Y0169324D01*
X0126628Y0167725D02*
X0151157Y0167725D01*
X0152755Y0166127D02*
X0126628Y0166127D01*
X0126628Y0164528D02*
X0154354Y0164528D01*
X0155952Y0162930D02*
X0126628Y0162930D01*
X0126628Y0161331D02*
X0157551Y0161331D01*
X0159149Y0159733D02*
X0126628Y0159733D01*
X0126628Y0158134D02*
X0160748Y0158134D01*
X0162346Y0156536D02*
X0126628Y0156536D01*
X0126628Y0154937D02*
X0163945Y0154937D01*
X0165543Y0153339D02*
X0126628Y0153339D01*
X0126628Y0151740D02*
X0167142Y0151740D01*
X0168740Y0150142D02*
X0126628Y0150142D01*
X0126628Y0148543D02*
X0170339Y0148543D01*
X0171937Y0146945D02*
X0126628Y0146945D01*
X0126628Y0145346D02*
X0173536Y0145346D01*
X0175134Y0143748D02*
X0126628Y0143748D01*
X0126628Y0142149D02*
X0176733Y0142149D01*
X0189039Y0140551D02*
X0126628Y0140551D01*
X0188841Y0209287D02*
X0188841Y0209287D01*
X0188841Y0210885D02*
X0188841Y0210885D01*
X0188841Y0212484D02*
X0188841Y0212484D01*
X0188841Y0214082D02*
X0188841Y0214082D01*
X0188841Y0215681D02*
X0188841Y0215681D01*
X0188841Y0217279D02*
X0188841Y0217279D01*
X0211614Y0234863D02*
X0217182Y0234863D01*
X0215874Y0236461D02*
X0212923Y0236461D01*
X0214398Y0238060D02*
X0214398Y0238060D01*
X0214398Y0239658D02*
X0214398Y0239658D01*
X0214398Y0241257D02*
X0214398Y0241257D01*
X0213622Y0242855D02*
X0215175Y0242855D01*
X0216773Y0244454D02*
X0212023Y0244454D01*
X0213213Y0233264D02*
X0215584Y0233264D01*
X0214398Y0231666D02*
X0214398Y0231666D01*
X0214398Y0230067D02*
X0214398Y0230067D01*
X0214398Y0228469D02*
X0214398Y0228469D01*
X0213332Y0226870D02*
X0215465Y0226870D01*
X0236840Y0159733D02*
X0243144Y0159733D01*
X0245321Y0150142D02*
X0207742Y0150142D01*
X0207828Y0148543D02*
X0243677Y0148543D01*
X0242921Y0146945D02*
X0207246Y0146945D01*
D24*
X0203847Y0149142D03*
X0190107Y0144417D03*
X0164202Y0178157D03*
X0164595Y0212252D03*
X0131879Y0183787D03*
X0109359Y0195992D03*
X0104398Y0201858D03*
X0103572Y0221150D03*
X0106997Y0226307D03*
X0120776Y0240323D03*
X0133454Y0252055D03*
X0133296Y0257685D03*
X0133060Y0263433D03*
X0131013Y0270244D03*
X0073965Y0220087D03*
X0067942Y0211110D03*
X0071643Y0207567D03*
X0082587Y0189181D03*
X0107745Y0162213D03*
X0099517Y0120441D03*
X0096013Y0115520D03*
X0092706Y0110362D03*
X0089713Y0105323D03*
X0087824Y0100441D03*
X0087706Y0095283D03*
X0087312Y0090165D03*
X0096564Y0088906D03*
X0111091Y0086898D03*
X0133178Y0095362D03*
X0145225Y0066465D03*
X0135304Y0018591D03*
X0065107Y0091504D03*
X0045304Y0107882D03*
X0033532Y0110362D03*
X0048335Y0130283D03*
X0040580Y0155756D03*
X0049320Y0165087D03*
X0049438Y0174969D03*
X0038414Y0182921D03*
X0049044Y0192646D03*
X0045107Y0196228D03*
X0046170Y0205323D03*
X0031170Y0227803D03*
X0036052Y0245205D03*
X0044792Y0258827D03*
X0033375Y0265402D03*
X0055245Y0274240D03*
X0010422Y0264850D03*
X0033178Y0090402D03*
X0060383Y0057409D03*
X0022036Y0020756D03*
X0246446Y0021622D03*
X0248178Y0270441D03*
D25*
X0185698Y0245205D02*
X0185698Y0242646D01*
X0185737Y0242606D01*
X0185540Y0242409D01*
X0185540Y0236071D01*
X0180068Y0230598D01*
X0180068Y0170362D01*
X0185461Y0164969D01*
X0248335Y0165047D01*
X0256406Y0152724D01*
X0256406Y0122252D01*
X0224753Y0085362D01*
X0224753Y0085323D01*
X0220619Y0081189D01*
X0215422Y0081189D01*
X0132194Y0060520D02*
X0132194Y0033984D01*
X0122233Y0033984D01*
X0102745Y0014496D01*
X0046761Y0014496D01*
X0045658Y0015598D01*
X0045658Y0015283D01*
X0072036Y0027803D02*
X0072902Y0026937D01*
X0072902Y0028984D01*
X0044398Y0057488D01*
X0036517Y0057488D01*
X0036235Y0057770D01*
X0072036Y0051780D02*
X0072036Y0027803D01*
X0072036Y0051780D02*
X0088965Y0068709D01*
X0109556Y0068709D01*
X0120495Y0057770D01*
X0120841Y0057770D01*
X0132194Y0060520D02*
X0121328Y0071386D01*
X0121328Y0208807D01*
X0120841Y0213270D01*
X0084162Y0252173D02*
X0077115Y0245126D01*
X0077115Y0244969D01*
X0075698Y0243551D01*
X0075698Y0221819D01*
X0073965Y0220087D01*
X0071839Y0217961D01*
X0040926Y0217961D01*
X0036235Y0213270D01*
X0084162Y0252173D02*
X0084162Y0269299D01*
X0084162Y0274260D01*
X0137430Y0275598D02*
X0144477Y0269181D01*
X0146446Y0269181D01*
X0146446Y0260520D01*
X0150658Y0256307D01*
X0174595Y0256307D01*
X0185698Y0245205D01*
X0146446Y0269181D02*
X0146367Y0269102D01*
D26*
X0138493Y0275874D02*
X0136249Y0276189D01*
X0087509Y0276268D01*
X0084162Y0274260D01*
X0137430Y0275598D02*
X0138493Y0275874D01*
D27*
X0071643Y0207567D02*
X0071839Y0207370D01*
X0071839Y0083709D01*
X0065658Y0077528D01*
X0030383Y0077528D01*
X0026918Y0081110D01*
X0020934Y0081110D01*
X0019359Y0082646D01*
X0019359Y0088984D01*
X0014359Y0093906D01*
X0014359Y0096110D01*
X0019359Y0092409D02*
X0020658Y0091110D01*
X0027036Y0091110D01*
X0030186Y0087961D01*
X0030186Y0081425D01*
X0031800Y0079811D01*
X0064753Y0079811D01*
X0069871Y0084929D01*
X0069871Y0203157D01*
X0067587Y0205441D01*
X0067587Y0210756D01*
X0067942Y0211110D01*
X0061918Y0196189D02*
X0067942Y0189929D01*
X0068060Y0171346D01*
X0061682Y0164890D01*
X0049320Y0165087D01*
X0049517Y0174890D02*
X0049438Y0174969D01*
X0049517Y0174890D02*
X0062509Y0174890D01*
X0066091Y0179063D01*
X0066091Y0188827D01*
X0061209Y0194142D01*
X0051879Y0194260D01*
X0050265Y0192646D01*
X0049044Y0192646D01*
X0045107Y0196228D02*
X0061918Y0196189D01*
X0031170Y0227803D02*
X0031170Y0233551D01*
X0028729Y0235992D01*
X0024477Y0235992D01*
X0024359Y0236110D01*
X0024910Y0245559D02*
X0024359Y0246110D01*
X0024910Y0245559D02*
X0036052Y0245205D01*
X0024359Y0136110D02*
X0033532Y0126937D01*
X0033532Y0110362D01*
X0027194Y0101110D02*
X0030894Y0097488D01*
X0030894Y0092685D01*
X0033178Y0090402D01*
X0027194Y0101110D02*
X0021209Y0101110D01*
X0019359Y0103000D01*
X0019359Y0129772D01*
X0014359Y0134850D01*
X0014359Y0136110D01*
X0014359Y0106110D02*
X0014359Y0105008D01*
X0019359Y0100008D01*
X0019359Y0092409D01*
D28*
X0024359Y0066110D02*
X0075383Y0066110D01*
X0085855Y0076583D01*
X0100776Y0076583D01*
X0111091Y0086898D01*
X0179556Y0144417D02*
X0150383Y0173591D01*
X0150383Y0210717D01*
X0120776Y0240323D01*
X0062272Y0250008D02*
X0056288Y0250008D01*
X0044792Y0238512D01*
X0044792Y0258827D01*
X0044792Y0268000D01*
X0043769Y0268984D01*
X0179556Y0144417D02*
X0190107Y0144417D01*
D29*
X0043769Y0268984D03*
D30*
X0082351Y0242291D02*
X0082351Y0189417D01*
X0082587Y0189181D01*
X0085855Y0193000D02*
X0087824Y0191031D01*
X0087824Y0187646D01*
X0078178Y0178000D01*
X0078178Y0098748D01*
X0087312Y0090165D01*
X0087706Y0095283D02*
X0081957Y0100087D01*
X0081957Y0176465D01*
X0091406Y0185913D01*
X0091406Y0192016D01*
X0089241Y0194181D01*
X0089241Y0239260D01*
X0096879Y0246898D01*
X0096879Y0258157D01*
X0100501Y0261780D01*
X0100816Y0261780D01*
X0101328Y0262291D01*
X0105580Y0262291D01*
X0112587Y0269299D01*
X0113690Y0269299D01*
X0115619Y0263039D02*
X0111209Y0263039D01*
X0107076Y0258906D01*
X0102666Y0258906D01*
X0100540Y0256780D01*
X0100540Y0245677D01*
X0092745Y0237882D01*
X0092745Y0195402D01*
X0094910Y0193236D01*
X0094910Y0184575D01*
X0085304Y0174969D01*
X0085304Y0102094D01*
X0087824Y0100441D01*
X0088650Y0105480D02*
X0089713Y0105323D01*
X0088650Y0105480D02*
X0088650Y0173748D01*
X0098257Y0183354D01*
X0098257Y0194457D01*
X0095973Y0196740D01*
X0095973Y0236504D01*
X0103887Y0244378D01*
X0103887Y0254929D01*
X0107548Y0254811D01*
X0111957Y0259220D01*
X0116682Y0259220D01*
X0120501Y0263039D01*
X0126721Y0263039D01*
X0131013Y0267331D01*
X0131013Y0270244D01*
X0132233Y0263787D02*
X0127666Y0259220D01*
X0121288Y0259220D01*
X0118099Y0255874D01*
X0113414Y0255756D01*
X0107154Y0249614D01*
X0107154Y0243039D01*
X0099477Y0235047D01*
X0099674Y0198157D01*
X0101603Y0196031D01*
X0101603Y0182016D01*
X0092036Y0172134D01*
X0091997Y0111228D01*
X0092706Y0110362D01*
X0096013Y0115520D02*
X0095225Y0116071D01*
X0095461Y0170520D01*
X0105068Y0180913D01*
X0105068Y0198000D01*
X0104910Y0197567D01*
X0104950Y0198472D01*
X0103965Y0199850D01*
X0104398Y0201858D01*
X0109359Y0195992D02*
X0109202Y0179811D01*
X0098690Y0169142D01*
X0098769Y0121465D01*
X0099517Y0120441D01*
X0085855Y0193000D02*
X0085855Y0240953D01*
X0093335Y0248433D01*
X0093335Y0260480D01*
X0102154Y0269299D01*
X0103847Y0269299D01*
X0094005Y0269299D02*
X0092942Y0269299D01*
X0089831Y0266189D01*
X0089831Y0249772D01*
X0082351Y0242291D01*
X0103139Y0233630D02*
X0102824Y0223079D01*
X0103572Y0221150D01*
X0106997Y0226307D02*
X0106721Y0227370D01*
X0107076Y0232055D01*
X0114556Y0239417D01*
X0114556Y0245992D01*
X0117272Y0248551D01*
X0120816Y0248551D01*
X0124044Y0251780D01*
X0133454Y0252055D01*
X0131328Y0257016D02*
X0128572Y0255717D01*
X0123099Y0255795D01*
X0119398Y0252173D01*
X0114595Y0252094D01*
X0110737Y0248472D01*
X0110658Y0241307D01*
X0103139Y0233630D01*
X0113375Y0255598D02*
X0113414Y0255756D01*
X0115619Y0263039D02*
X0121879Y0269299D01*
X0123532Y0269299D01*
X0132233Y0263787D02*
X0133060Y0263433D01*
X0133296Y0257685D02*
X0131328Y0257016D01*
M02*
