%
M48
M72
T01C0.01969
T02C0.02362
T03C0.03150
T04C0.03200
T05C0.03543
T06C0.03937
T07C0.04000
T08C0.05118
T09C0.10630
T10C0.11811
%
T01
X43769Y268984
T02
X22036Y20756
X60383Y57409
X87312Y90165
X87706Y95283
X87824Y100441
X89713Y105323
X92706Y110362
X96013Y115520
X99517Y120441
X96564Y88906
X111091Y86898
X133178Y95362
X145225Y66465
X135304Y18591
X65107Y91504
X45304Y107882
X33532Y110362
X48335Y130283
X40580Y155756
X49320Y165087
X49438Y174969
X38414Y182921
X49044Y192646
X45107Y196228
X46170Y205323
X67942Y211110
X71643Y207567
X73965Y220087
X82587Y189181
X104398Y201858
X109359Y195992
X131879Y183787
X107745Y162213
X103572Y221150
X106997Y226307
X120776Y240323
X133454Y252055
X133296Y257685
X133060Y263433
X131013Y270244
X164595Y212252
X164202Y178157
X190107Y144417
X203847Y149142
X248178Y270441
X55245Y274240
X44792Y258827
X33375Y265402
X36052Y245205
X31170Y227803
X10422Y264850
X33178Y90402
X246446Y21622
T03
X188341Y57770
X120841Y57770
X103735Y57770
X36235Y57770
X36235Y213270
X104235Y213270
X120841Y213270
X188841Y213270
T04
X69772Y255008
X62272Y260008
X62272Y250008
T05
X215422Y108748
X215422Y98906
X215422Y91031
X215422Y81189
T06
X64753Y227331
X54753Y227331
X44753Y227331
X44792Y238512
X54792Y238512
X64792Y238512
X48493Y280598
X38493Y280598
T07
X24359Y256110
X24359Y246110
X14359Y246110
X14359Y256110
X14359Y236110
X14359Y226110
X14359Y216110
X24359Y216110
X24359Y226110
X24359Y236110
X24359Y206110
X24359Y196110
X24359Y186110
X24359Y176110
X14359Y176110
X14359Y186110
X14359Y196110
X14359Y206110
X14359Y166110
X14359Y156110
X14359Y146110
X24359Y146110
X24359Y156110
X24359Y166110
X24359Y136110
X24359Y126110
X24359Y116110
X14359Y116110
X14359Y126110
X14359Y136110
X14359Y106110
X14359Y96110
X14359Y86110
X14359Y76110
X24359Y76110
X24359Y86110
X24359Y96110
X24359Y106110
X24359Y66110
X14359Y66110
X146367Y242606
X156209Y242606
X166052Y242606
X175894Y242606
X185737Y242606
X209398Y240008
X219398Y240008
X219398Y230008
X209398Y230008
X209398Y220008
X209398Y210008
X219398Y210008
X219398Y220008
X219398Y200008
X209398Y200008
X244831Y200087
X244831Y210087
X244831Y220087
X244831Y230087
X244831Y240087
X254831Y240087
X254831Y230087
X254831Y220087
X254831Y210087
X254831Y200087
X185816Y269181
X175973Y269181
X166131Y269181
X156288Y269181
X146446Y269181
X123532Y269299
X113690Y269299
X103847Y269299
X94005Y269299
X84162Y269299
T08
X248335Y165047
X248335Y145362
X45658Y35283
X45658Y15598
T09
X72902Y26937
X84713Y45795
X96918Y26937
T10
X19359Y46937
X212272Y46937
X226052Y68984
X226052Y120953
X212272Y275283
X19359Y275283
M30
